<svg width="345" height="166" viewBox="0 0 345 166" fill="none" xmlns="http://www.w3.org/2000/svg">
<g filter="url(#filter0_dd_2670_215)">
<g clip-path="url(#clip0_2670_215)">
<rect x="16" y="10" width="313" height="132" rx="24" fill="white"/>
<path d="M45.964 31.168C45.2267 31.168 44.5407 31.0327 43.906 30.762C43.2807 30.4913 42.73 30.118 42.254 29.642C41.7873 29.1567 41.4233 28.5873 41.162 27.934C40.9007 27.2807 40.77 26.562 40.77 25.778C40.77 25.0033 40.896 24.2893 41.148 23.636C41.4093 22.9733 41.7733 22.404 42.24 21.928C42.7067 21.4427 43.2527 21.0693 43.878 20.808C44.5033 20.5373 45.1893 20.402 45.936 20.402C46.6733 20.402 47.3313 20.528 47.91 20.78C48.498 21.032 48.9927 21.3633 49.394 21.774C49.7953 22.1753 50.0847 22.614 50.262 23.09L48.792 23.804C48.5773 23.2347 48.2227 22.7773 47.728 22.432C47.2333 22.0773 46.636 21.9 45.936 21.9C45.2453 21.9 44.634 22.0633 44.102 22.39C43.57 22.7167 43.1547 23.1693 42.856 23.748C42.5667 24.3267 42.422 25.0033 42.422 25.778C42.422 26.5527 42.5713 27.234 42.87 27.822C43.178 28.4007 43.598 28.8533 44.13 29.18C44.662 29.4973 45.2733 29.656 45.964 29.656C46.5427 29.656 47.07 29.5393 47.546 29.306C48.0313 29.0633 48.4187 28.7273 48.708 28.298C48.9973 27.8593 49.142 27.3507 49.142 26.772V26.058L49.884 26.73H45.936V25.33H50.78V26.31C50.78 27.0753 50.6493 27.7613 50.388 28.368C50.1267 28.9653 49.772 29.474 49.324 29.894C48.876 30.314 48.3627 30.6313 47.784 30.846C47.2053 31.0607 46.5987 31.168 45.964 31.168ZM55.8687 31.168C55.1127 31.168 54.4407 30.9953 53.8527 30.65C53.274 30.2953 52.8213 29.8193 52.4947 29.222C52.168 28.6153 52.0047 27.9387 52.0047 27.192C52.0047 26.4267 52.168 25.75 52.4947 25.162C52.8307 24.574 53.2787 24.112 53.8387 23.776C54.3987 23.4307 55.0333 23.258 55.7427 23.258C56.312 23.258 56.8207 23.356 57.2687 23.552C57.7167 23.748 58.0947 24.0187 58.4027 24.364C58.7107 24.7 58.944 25.0873 59.1027 25.526C59.2707 25.9647 59.3547 26.4313 59.3547 26.926C59.3547 27.0473 59.35 27.1733 59.3407 27.304C59.3313 27.4347 59.3127 27.556 59.2847 27.668H53.2507V26.408H58.3887L57.6327 26.982C57.726 26.5247 57.6933 26.1187 57.5347 25.764C57.3853 25.4 57.152 25.1153 56.8347 24.91C56.5267 24.6953 56.1627 24.588 55.7427 24.588C55.3227 24.588 54.9493 24.6953 54.6227 24.91C54.296 25.1153 54.044 25.414 53.8667 25.806C53.6893 26.1887 53.6193 26.6553 53.6567 27.206C53.61 27.7193 53.68 28.1673 53.8667 28.55C54.0627 28.9327 54.3333 29.2313 54.6787 29.446C55.0333 29.6607 55.4347 29.768 55.8827 29.768C56.34 29.768 56.7273 29.6653 57.0447 29.46C57.3713 29.2547 57.628 28.9887 57.8147 28.662L59.1027 29.292C58.9533 29.6467 58.72 29.9687 58.4027 30.258C58.0947 30.538 57.7213 30.762 57.2827 30.93C56.8533 31.0887 56.382 31.168 55.8687 31.168ZM62.7326 31L60.1286 23.426H61.8086L63.7966 29.46H63.2086L65.2386 23.426H66.6806L68.6966 29.46H68.1086L70.1106 23.426H71.7906L69.1726 31H67.7446L65.7006 24.826H66.2186L64.1746 31H62.7326ZM72.8752 31V23.426H74.4572V31H72.8752ZM72.8752 22.39V20.57H74.4572V22.39H72.8752ZM76.3068 31V23.426H77.8188V24.91L77.6368 24.714C77.8235 24.238 78.1221 23.8787 78.5328 23.636C78.9435 23.384 79.4195 23.258 79.9608 23.258C80.5208 23.258 81.0155 23.3793 81.4448 23.622C81.8741 23.8647 82.2101 24.2007 82.4528 24.63C82.6955 25.0593 82.8168 25.554 82.8168 26.114V31H81.2488V26.534C81.2488 26.1513 81.1788 25.8293 81.0388 25.568C80.8988 25.2973 80.6981 25.092 80.4368 24.952C80.1848 24.8027 79.8955 24.728 79.5688 24.728C79.2421 24.728 78.9481 24.8027 78.6868 24.952C78.4348 25.092 78.2388 25.2973 78.0988 25.568C77.9588 25.8387 77.8888 26.1607 77.8888 26.534V31H76.3068ZM84.5099 31V23.426H86.0219V24.91L85.8399 24.714C86.0266 24.238 86.3253 23.8787 86.7359 23.636C87.1466 23.384 87.6226 23.258 88.1639 23.258C88.7239 23.258 89.2186 23.3793 89.6479 23.622C90.0773 23.8647 90.4133 24.2007 90.6559 24.63C90.8986 25.0593 91.0199 25.554 91.0199 26.114V31H89.4519V26.534C89.4519 26.1513 89.3819 25.8293 89.2419 25.568C89.1019 25.2973 88.9013 25.092 88.6399 24.952C88.3879 24.8027 88.0986 24.728 87.7719 24.728C87.4453 24.728 87.1513 24.8027 86.8899 24.952C86.6379 25.092 86.4419 25.2973 86.3019 25.568C86.1619 25.8387 86.0919 26.1607 86.0919 26.534V31H84.5099Z" fill="#121D2F"/>
<path d="M58 87.3292L311.999 88.5487" stroke="#EFF1F4"/>
<path d="M37.492 119.5V110.26H35.518V109.07H38.878V119.5H37.492ZM41.3537 119.5V108.902H42.6557V116.168L42.1237 116.042L46.1277 111.954H47.7937L44.8957 114.992L47.9897 119.5H46.4497L43.6217 115.412L44.4337 115.37L42.2357 117.666L42.6557 116.714V119.5H41.3537Z" fill="#727C8F"/>
<line x1="57.999" y1="114.25" x2="311.999" y2="113.75" stroke="#EFF1F4"/>
<path d="M38.2 92.168C37.6587 92.168 37.15 92.0747 36.674 91.888C36.198 91.692 35.7827 91.4167 35.428 91.062C35.0827 90.698 34.8307 90.2733 34.672 89.788L35.792 89.312C35.988 89.8253 36.3053 90.2267 36.744 90.516C37.192 90.796 37.6773 90.936 38.2 90.936C38.6293 90.936 39.0073 90.8427 39.334 90.656C39.67 90.46 39.9313 90.194 40.118 89.858C40.3047 89.5127 40.398 89.13 40.398 88.71C40.398 88.2713 40.3 87.884 40.104 87.548C39.9173 87.212 39.6607 86.9507 39.334 86.764C39.0073 86.568 38.634 86.47 38.214 86.47C37.7847 86.47 37.3927 86.568 37.038 86.764C36.6833 86.96 36.4267 87.2073 36.268 87.506L35.162 87.268L35.96 81.57H41.364V82.76H36.478L37.01 82.228L36.394 86.652L35.918 86.372C36.226 85.98 36.5853 85.7 36.996 85.532C37.416 85.3547 37.8687 85.266 38.354 85.266C39.0353 85.266 39.6327 85.42 40.146 85.728C40.6593 86.036 41.0607 86.4467 41.35 86.96C41.6393 87.4733 41.784 88.0567 41.784 88.71C41.784 89.3633 41.6253 89.9513 41.308 90.474C41 90.9967 40.5753 91.412 40.034 91.72C39.502 92.0187 38.8907 92.168 38.2 92.168ZM43.635 92V81.402H44.937V88.668L44.405 88.542L48.409 84.454H50.075L47.177 87.492L50.271 92H48.731L45.903 87.912L46.715 87.87L44.517 90.166L44.937 89.214V92H43.635Z" fill="#727C8F"/>
<line x1="58" y1="58.5" x2="312" y2="58.5" stroke="#EFF1F4"/>
<path d="M29.492 64V54.76H27.518V53.57H30.878V64H29.492ZM37.4277 64.168C36.597 64.168 35.869 63.944 35.2437 63.496C34.6277 63.0387 34.147 62.4087 33.8017 61.606C33.4564 60.794 33.2837 59.8513 33.2837 58.778C33.2837 57.7047 33.4564 56.7667 33.8017 55.964C34.147 55.152 34.6277 54.522 35.2437 54.074C35.8597 53.626 36.583 53.402 37.4137 53.402C38.2444 53.402 38.9677 53.626 39.5837 54.074C40.1997 54.522 40.6804 55.152 41.0257 55.964C41.3804 56.7667 41.5577 57.7047 41.5577 58.778C41.5577 59.8513 41.385 60.794 41.0397 61.606C40.6944 62.418 40.209 63.048 39.5837 63.496C38.9677 63.944 38.249 64.168 37.4277 64.168ZM37.4277 62.894C37.9877 62.894 38.473 62.726 38.8837 62.39C39.2944 62.0447 39.6117 61.564 39.8357 60.948C40.069 60.332 40.1857 59.6087 40.1857 58.778C40.1857 57.9473 40.069 57.224 39.8357 56.608C39.6117 55.992 39.2897 55.516 38.8697 55.18C38.459 54.844 37.9737 54.676 37.4137 54.676C36.8537 54.676 36.3684 54.844 35.9577 55.18C35.547 55.516 35.225 55.992 34.9917 56.608C34.7677 57.224 34.6557 57.9473 34.6557 58.778C34.6557 59.5993 34.7677 60.318 34.9917 60.934C35.225 61.55 35.547 62.0307 35.9577 62.376C36.3777 62.7213 36.8677 62.894 37.4277 62.894ZM43.4846 64V53.402H44.7866V60.668L44.2546 60.542L48.2586 56.454H49.9246L47.0266 59.492L50.1206 64H48.5806L45.7526 59.912L46.5646 59.87L44.3666 62.166L44.7866 61.214V64H43.4846Z" fill="#727C8F"/>
<path d="M73 128C84.2744 112.7 108.937 80.1889 133.6 75.2166C158.262 70.2442 191.76 92.1206 213.93 90.5161C240.354 88.6037 273.472 66.0369 308 45" stroke="#1AC44A" stroke-width="4" stroke-linecap="round"/>
<path d="M218 88.5C218 91.8137 215.314 94.5 212 94.5C208.686 94.5 206 91.8137 206 88.5C206 85.1863 208.686 82.5 212 82.5C215.314 82.5 218 85.1863 218 88.5Z" fill="white" stroke="#1AC44A" stroke-width="4"/>
<rect x="178" y="37" width="69" height="29" rx="14.5" fill="#1AC44A"/>
<path d="M190 56.84H202V44.84H190V56.84ZM209.676 56.144C209.204 56.144 208.764 56.06 208.356 55.892C207.948 55.724 207.596 55.488 207.3 55.184C207.004 54.872 206.784 54.504 206.64 54.08L207.636 53.672C207.804 54.12 208.068 54.468 208.428 54.716C208.788 54.964 209.204 55.088 209.676 55.088C210.044 55.088 210.372 55.016 210.66 54.872C210.948 54.728 211.172 54.52 211.332 54.248C211.5 53.976 211.584 53.648 211.584 53.264C211.584 52.872 211.5 52.544 211.332 52.28C211.172 52.008 210.948 51.8 210.66 51.656C210.372 51.512 210.04 51.44 209.664 51.44C209.544 51.44 209.412 51.448 209.268 51.464C209.132 51.48 209.016 51.504 208.92 51.536L208.668 50.996L211.056 48.08H207.096V47.06H212.388V48.044L210.108 50.852L210.036 50.54C210.572 50.556 211.044 50.68 211.452 50.912C211.86 51.144 212.18 51.46 212.412 51.86C212.644 52.252 212.76 52.712 212.76 53.24C212.76 53.784 212.628 54.276 212.364 54.716C212.1 55.156 211.736 55.504 211.272 55.76C210.808 56.016 210.276 56.144 209.676 56.144ZM217.829 56.144C217.117 56.144 216.493 55.952 215.957 55.568C215.429 55.176 215.017 54.636 214.721 53.948C214.425 53.252 214.277 52.444 214.277 51.524C214.277 50.604 214.425 49.8 214.721 49.112C215.017 48.416 215.429 47.876 215.957 47.492C216.485 47.108 217.105 46.916 217.817 46.916C218.529 46.916 219.149 47.108 219.677 47.492C220.205 47.876 220.617 48.416 220.913 49.112C221.217 49.8 221.369 50.604 221.369 51.524C221.369 52.444 221.221 53.252 220.925 53.948C220.629 54.644 220.213 55.184 219.677 55.568C219.149 55.952 218.533 56.144 217.829 56.144ZM217.829 55.052C218.309 55.052 218.725 54.908 219.077 54.62C219.429 54.324 219.701 53.912 219.893 53.384C220.093 52.856 220.193 52.236 220.193 51.524C220.193 50.812 220.093 50.192 219.893 49.664C219.701 49.136 219.425 48.728 219.065 48.44C218.713 48.152 218.297 48.008 217.817 48.008C217.337 48.008 216.921 48.152 216.569 48.44C216.217 48.728 215.941 49.136 215.741 49.664C215.549 50.192 215.453 50.812 215.453 51.524C215.453 52.228 215.549 52.844 215.741 53.372C215.941 53.9 216.217 54.312 216.569 54.608C216.929 54.904 217.349 55.052 217.829 55.052ZM223.872 56L231.168 47.06H232.5L225.204 56H223.872ZM225.216 51.596C224.776 51.596 224.38 51.492 224.028 51.284C223.676 51.068 223.392 50.784 223.176 50.432C222.968 50.08 222.864 49.688 222.864 49.256C222.864 48.824 222.968 48.432 223.176 48.08C223.392 47.72 223.676 47.436 224.028 47.228C224.38 47.02 224.776 46.916 225.216 46.916C225.648 46.916 226.04 47.02 226.392 47.228C226.744 47.436 227.024 47.72 227.232 48.08C227.44 48.432 227.544 48.824 227.544 49.256C227.544 49.688 227.44 50.08 227.232 50.432C227.024 50.784 226.744 51.068 226.392 51.284C226.04 51.492 225.648 51.596 225.216 51.596ZM225.204 50.612C225.476 50.612 225.708 50.548 225.9 50.42C226.092 50.292 226.244 50.124 226.356 49.916C226.468 49.708 226.524 49.488 226.524 49.256C226.524 49.016 226.468 48.796 226.356 48.596C226.244 48.388 226.092 48.22 225.9 48.092C225.708 47.956 225.476 47.888 225.204 47.888C224.948 47.888 224.72 47.956 224.52 48.092C224.32 48.22 224.164 48.388 224.052 48.596C223.94 48.804 223.884 49.024 223.884 49.256C223.884 49.48 223.94 49.7 224.052 49.916C224.164 50.124 224.32 50.292 224.52 50.42C224.72 50.548 224.948 50.612 225.204 50.612ZM231.084 56.144C230.644 56.144 230.248 56.04 229.896 55.832C229.544 55.616 229.26 55.332 229.044 54.98C228.836 54.628 228.732 54.236 228.732 53.804C228.732 53.372 228.836 52.98 229.044 52.628C229.26 52.268 229.544 51.984 229.896 51.776C230.248 51.568 230.644 51.464 231.084 51.464C231.516 51.464 231.908 51.568 232.26 51.776C232.612 51.984 232.892 52.268 233.1 52.628C233.308 52.98 233.412 53.372 233.412 53.804C233.412 54.236 233.308 54.628 233.1 54.98C232.892 55.332 232.612 55.616 232.26 55.832C231.908 56.04 231.516 56.144 231.084 56.144ZM231.084 55.16C231.348 55.16 231.576 55.096 231.768 54.968C231.968 54.84 232.12 54.672 232.224 54.464C232.336 54.256 232.392 54.036 232.392 53.804C232.392 53.564 232.336 53.344 232.224 53.144C232.12 52.936 231.968 52.768 231.768 52.64C231.576 52.504 231.348 52.436 231.084 52.436C230.828 52.436 230.596 52.504 230.388 52.64C230.188 52.768 230.032 52.936 229.92 53.144C229.808 53.352 229.752 53.572 229.752 53.804C229.752 54.028 229.808 54.248 229.92 54.464C230.032 54.672 230.188 54.84 230.388 54.968C230.596 55.096 230.828 55.16 231.084 55.16Z" fill="white"/>
<path d="M212.5 72L209.036 66L215.964 66L212.5 72Z" fill="#1AC44A"/>
</g>
</g>
<defs>
<filter id="filter0_dd_2670_215" x="0" y="0" width="345" height="166" filterUnits="userSpaceOnUse" color-interpolation-filters="sRGB">
<feFlood flood-opacity="0" result="BackgroundImageFix"/>
<feColorMatrix in="SourceAlpha" type="matrix" values="0 0 0 0 0 0 0 0 0 0 0 0 0 0 0 0 0 0 127 0" result="hardAlpha"/>
<feOffset dy="8"/>
<feGaussianBlur stdDeviation="8"/>
<feComposite in2="hardAlpha" operator="out"/>
<feColorMatrix type="matrix" values="0 0 0 0 0.146667 0 0 0 0 0.386222 0 0 0 0 0.8 0 0 0 0.15 0"/>
<feBlend mode="normal" in2="BackgroundImageFix" result="effect1_dropShadow_2670_215"/>
<feColorMatrix in="SourceAlpha" type="matrix" values="0 0 0 0 0 0 0 0 0 0 0 0 0 0 0 0 0 0 127 0" result="hardAlpha"/>
<feOffset/>
<feGaussianBlur stdDeviation="5"/>
<feComposite in2="hardAlpha" operator="out"/>
<feColorMatrix type="matrix" values="0 0 0 0 0.145098 0 0 0 0 0.384314 0 0 0 0 0.8 0 0 0 0.05 0"/>
<feBlend mode="normal" in2="effect1_dropShadow_2670_215" result="effect2_dropShadow_2670_215"/>
<feBlend mode="normal" in="SourceGraphic" in2="effect2_dropShadow_2670_215" result="shape"/>
</filter>
<clipPath id="clip0_2670_215">
<rect x="16" y="10" width="313" height="132" rx="24" fill="white"/>
</clipPath>
</defs>
</svg>
