<svg width="129" height="114" viewBox="0 0 129 114" fill="none" xmlns="http://www.w3.org/2000/svg">
<g filter="url(#filter0_d_416_949)">
<rect x="16" y="16" width="74" height="74" rx="24" fill="white"/>
</g>
<rect opacity="0.5" x="9" y="9" width="88" height="88" rx="23" stroke="white" stroke-width="2"/>
<rect opacity="0.3" x="1" y="1" width="104" height="104" rx="23" stroke="white" stroke-width="2"/>
<rect x="37.8309" y="58.1964" width="6.21126" height="12.4225" rx="1.77465" fill="#364050"/>
<rect x="45.8168" y="53.7598" width="6.21126" height="16.8591" rx="1.77465" fill="#364050"/>
<rect x="53.8027" y="48.4358" width="6.21126" height="22.1831" rx="1.77465" fill="#364050"/>
<rect x="61.7886" y="43.9992" width="6.21126" height="26.6197" rx="1.77465" fill="#364050"/>
<path d="M36.5001 49.9851C45.817 47.7668 55.1339 42.8866 61.7888 35.788" stroke="#364050" stroke-width="1.74998" stroke-miterlimit="10" stroke-linecap="round"/>
<path d="M65.4304 30.6057L59.4719 32.4726C58.8697 32.6609 58.6967 33.4318 59.1617 33.8586L63.7571 38.0855C64.222 38.5133 64.9754 38.277 65.1128 37.6609L66.4757 31.568C66.6142 30.9511 66.0336 30.4175 65.4304 30.6057Z" fill="#364050"/>
<rect x="70" y="1" width="59" height="33" rx="16.5" fill="#1AC44A"/>
<path d="M85.264 22V19.588H82.852V18.388H85.264V16H86.464V18.388H88.852V19.588H86.464V22H85.264ZM90.2992 22V20.98L92.7472 18.364C93.2272 17.852 93.6032 17.44 93.8752 17.128C94.1552 16.808 94.3552 16.528 94.4752 16.288C94.6032 16.048 94.6672 15.796 94.6672 15.532C94.6672 15.1 94.5352 14.768 94.2712 14.536C94.0072 14.296 93.6672 14.176 93.2512 14.176C92.8192 14.176 92.4472 14.3 92.1352 14.548C91.8232 14.788 91.6072 15.14 91.4872 15.604L90.2392 15.244C90.3352 14.772 90.5272 14.364 90.8152 14.02C91.1032 13.668 91.4552 13.396 91.8712 13.204C92.2952 13.012 92.7512 12.916 93.2392 12.916C93.8072 12.916 94.3032 13.024 94.7272 13.24C95.1512 13.448 95.4792 13.74 95.7112 14.116C95.9512 14.492 96.0712 14.928 96.0712 15.424C96.0712 15.752 96.0072 16.072 95.8792 16.384C95.7592 16.688 95.5712 17.012 95.3152 17.356C95.0592 17.692 94.7312 18.072 94.3312 18.496L92.1712 20.8H96.2392V22H90.2992ZM100.459 22.144C99.9871 22.144 99.5431 22.06 99.1271 21.892C98.7111 21.716 98.3511 21.472 98.0471 21.16C97.7431 20.848 97.5271 20.472 97.3991 20.032L98.5871 19.576C98.7391 20 98.9871 20.324 99.3311 20.548C99.6751 20.772 100.051 20.884 100.459 20.884C100.795 20.884 101.091 20.808 101.347 20.656C101.603 20.504 101.803 20.296 101.947 20.032C102.099 19.768 102.175 19.468 102.175 19.132C102.175 18.788 102.099 18.488 101.947 18.232C101.803 17.968 101.603 17.764 101.347 17.62C101.091 17.468 100.795 17.392 100.459 17.392C100.123 17.392 99.8151 17.468 99.5351 17.62C99.2551 17.772 99.0511 17.976 98.9231 18.232L97.7831 17.98L98.4791 13.06H103.243V14.26H99.0311L99.5711 13.672L99.0551 17.44L98.6111 17.14C98.8511 16.804 99.1431 16.56 99.4871 16.408C99.8311 16.256 100.223 16.18 100.663 16.18C101.247 16.18 101.755 16.312 102.187 16.576C102.627 16.832 102.967 17.184 103.207 17.632C103.455 18.072 103.579 18.572 103.579 19.132C103.579 19.7 103.443 20.212 103.171 20.668C102.899 21.124 102.527 21.484 102.055 21.748C101.591 22.012 101.059 22.144 100.459 22.144ZM106.03 22L113.302 13.06H114.814L107.542 22H106.03ZM107.398 17.596C106.958 17.596 106.562 17.492 106.21 17.284C105.858 17.068 105.574 16.784 105.358 16.432C105.15 16.08 105.046 15.688 105.046 15.256C105.046 14.824 105.15 14.432 105.358 14.08C105.574 13.72 105.858 13.436 106.21 13.228C106.562 13.02 106.958 12.916 107.398 12.916C107.838 12.916 108.234 13.02 108.586 13.228C108.938 13.436 109.218 13.72 109.426 14.08C109.634 14.432 109.738 14.824 109.738 15.256C109.738 15.688 109.634 16.08 109.426 16.432C109.218 16.784 108.938 17.068 108.586 17.284C108.234 17.492 107.838 17.596 107.398 17.596ZM107.398 16.504C107.646 16.504 107.858 16.444 108.034 16.324C108.218 16.204 108.358 16.048 108.454 15.856C108.55 15.664 108.598 15.464 108.598 15.256C108.598 15.04 108.55 14.84 108.454 14.656C108.358 14.464 108.218 14.308 108.034 14.188C107.858 14.068 107.646 14.008 107.398 14.008C107.158 14.008 106.946 14.068 106.762 14.188C106.578 14.308 106.434 14.464 106.33 14.656C106.234 14.84 106.186 15.04 106.186 15.256C106.186 15.464 106.234 15.664 106.33 15.856C106.434 16.048 106.578 16.204 106.762 16.324C106.946 16.444 107.158 16.504 107.398 16.504ZM113.386 22.144C112.946 22.144 112.546 22.04 112.186 21.832C111.834 21.616 111.554 21.332 111.346 20.98C111.138 20.628 111.034 20.236 111.034 19.804C111.034 19.372 111.138 18.98 111.346 18.628C111.554 18.268 111.834 17.984 112.186 17.776C112.546 17.568 112.946 17.464 113.386 17.464C113.826 17.464 114.222 17.568 114.574 17.776C114.926 17.984 115.206 18.268 115.414 18.628C115.622 18.98 115.726 19.372 115.726 19.804C115.726 20.236 115.622 20.628 115.414 20.98C115.206 21.332 114.926 21.616 114.574 21.832C114.222 22.04 113.826 22.144 113.386 22.144ZM113.386 21.052C113.634 21.052 113.846 20.992 114.022 20.872C114.198 20.752 114.334 20.596 114.43 20.404C114.534 20.212 114.586 20.012 114.586 19.804C114.586 19.588 114.534 19.388 114.43 19.204C114.334 19.012 114.198 18.856 114.022 18.736C113.846 18.616 113.634 18.556 113.386 18.556C113.146 18.556 112.934 18.616 112.75 18.736C112.566 18.856 112.422 19.012 112.318 19.204C112.222 19.388 112.174 19.588 112.174 19.804C112.174 20.012 112.222 20.212 112.318 20.404C112.422 20.596 112.566 20.752 112.75 20.872C112.934 20.992 113.146 21.052 113.386 21.052Z" fill="white"/>
<defs>
<filter id="filter0_d_416_949" x="0" y="8" width="106" height="106" filterUnits="userSpaceOnUse" color-interpolation-filters="sRGB">
<feFlood flood-opacity="0" result="BackgroundImageFix"/>
<feColorMatrix in="SourceAlpha" type="matrix" values="0 0 0 0 0 0 0 0 0 0 0 0 0 0 0 0 0 0 127 0" result="hardAlpha"/>
<feOffset dy="8"/>
<feGaussianBlur stdDeviation="8"/>
<feComposite in2="hardAlpha" operator="out"/>
<feColorMatrix type="matrix" values="0 0 0 0 0.146667 0 0 0 0 0.386222 0 0 0 0 0.8 0 0 0 0.15 0"/>
<feBlend mode="normal" in2="BackgroundImageFix" result="effect1_dropShadow_416_949"/>
<feBlend mode="normal" in="SourceGraphic" in2="effect1_dropShadow_416_949" result="shape"/>
</filter>
</defs>
</svg>
