<svg width="317" height="176" viewBox="0 0 317 176" fill="none" xmlns="http://www.w3.org/2000/svg">
<g filter="url(#filter0_d_416_837)">
<mask id="path-1-inside-1_416_837" fill="white">
<path d="M16 45C16 36.1634 23.1634 29 32 29H285C293.837 29 301 36.1634 301 45V79H16V45Z"/>
</mask>
<path d="M16 45C16 36.1634 23.1634 29 32 29H285C293.837 29 301 36.1634 301 45V79H16V45Z" fill="white"/>
<path d="M16 29H301H16ZM301 79.5H16V78.5H301V79.5ZM16 79V29V79ZM301 29V79V29Z" fill="#EFF1F4" mask="url(#path-1-inside-1_416_837)"/>
<path d="M37.078 59V48.57H38.73V57.53H43.238V59H37.078ZM48.1249 59.168C47.3969 59.168 46.7295 58.9953 46.1229 58.65C45.5255 58.3047 45.0495 57.8333 44.6949 57.236C44.3402 56.6387 44.1629 55.962 44.1629 55.206C44.1629 54.4407 44.3402 53.764 44.6949 53.176C45.0495 52.5787 45.5255 52.112 46.1229 51.776C46.7202 51.4307 47.3875 51.258 48.1249 51.258C48.8715 51.258 49.5389 51.4307 50.1269 51.776C50.7242 52.112 51.1955 52.5787 51.5409 53.176C51.8955 53.764 52.0729 54.4407 52.0729 55.206C52.0729 55.9713 51.8955 56.6527 51.5409 57.25C51.1862 57.8473 50.7102 58.3187 50.1129 58.664C49.5155 59 48.8529 59.168 48.1249 59.168ZM48.1249 57.698C48.5729 57.698 48.9695 57.5907 49.3149 57.376C49.6602 57.1613 49.9309 56.8673 50.1269 56.494C50.3322 56.1113 50.4349 55.682 50.4349 55.206C50.4349 54.73 50.3322 54.3053 50.1269 53.932C49.9309 53.5587 49.6602 53.2647 49.3149 53.05C48.9695 52.8353 48.5729 52.728 48.1249 52.728C47.6862 52.728 47.2895 52.8353 46.9349 53.05C46.5895 53.2647 46.3142 53.5587 46.1089 53.932C45.9129 54.3053 45.8149 54.73 45.8149 55.206C45.8149 55.682 45.9129 56.1113 46.1089 56.494C46.3142 56.8673 46.5895 57.1613 46.9349 57.376C47.2895 57.5907 47.6862 57.698 48.1249 57.698ZM53.6174 59V48.402H55.1994V52.91L54.9474 52.714C55.134 52.238 55.4327 51.8787 55.8434 51.636C56.254 51.384 56.73 51.258 57.2714 51.258C57.8314 51.258 58.326 51.3793 58.7554 51.622C59.1847 51.8647 59.5207 52.2007 59.7634 52.63C60.006 53.0593 60.1274 53.5493 60.1274 54.1V59H58.5594V54.534C58.5594 54.1513 58.4847 53.8293 58.3354 53.568C58.1954 53.2973 57.9994 53.092 57.7474 52.952C57.4954 52.8027 57.206 52.728 56.8794 52.728C56.562 52.728 56.2727 52.8027 56.0114 52.952C55.7594 53.092 55.5587 53.2973 55.4094 53.568C55.2694 53.8387 55.1994 54.1607 55.1994 54.534V59H53.6174ZM61.8205 59V51.426H63.3325V52.91L63.1505 52.714C63.3372 52.238 63.6358 51.8787 64.0465 51.636C64.4572 51.384 64.9332 51.258 65.4745 51.258C66.0345 51.258 66.5292 51.3793 66.9585 51.622C67.3878 51.8647 67.7238 52.2007 67.9665 52.63C68.2092 53.0593 68.3305 53.554 68.3305 54.114V59H66.7625V54.534C66.7625 54.1513 66.6925 53.8293 66.5525 53.568C66.4125 53.2973 66.2118 53.092 65.9505 52.952C65.6985 52.8027 65.4092 52.728 65.0825 52.728C64.7558 52.728 64.4618 52.8027 64.2005 52.952C63.9485 53.092 63.7525 53.2973 63.6125 53.568C63.4725 53.8387 63.4025 54.1607 63.4025 54.534V59H61.8205ZM73.5796 59.168C72.8236 59.168 72.1516 58.9953 71.5636 58.65C70.9849 58.2953 70.5323 57.8193 70.2056 57.222C69.8789 56.6153 69.7156 55.9387 69.7156 55.192C69.7156 54.4267 69.8789 53.75 70.2056 53.162C70.5416 52.574 70.9896 52.112 71.5496 51.776C72.1096 51.4307 72.7443 51.258 73.4536 51.258C74.0229 51.258 74.5316 51.356 74.9796 51.552C75.4276 51.748 75.8056 52.0187 76.1136 52.364C76.4216 52.7 76.6549 53.0873 76.8136 53.526C76.9816 53.9647 77.0656 54.4313 77.0656 54.926C77.0656 55.0473 77.0609 55.1733 77.0516 55.304C77.0423 55.4347 77.0236 55.556 76.9956 55.668H70.9616V54.408H76.0996L75.3436 54.982C75.4369 54.5247 75.4043 54.1187 75.2456 53.764C75.0963 53.4 74.8629 53.1153 74.5456 52.91C74.2376 52.6953 73.8736 52.588 73.4536 52.588C73.0336 52.588 72.6603 52.6953 72.3336 52.91C72.0069 53.1153 71.7549 53.414 71.5776 53.806C71.4003 54.1887 71.3303 54.6553 71.3676 55.206C71.3209 55.7193 71.3909 56.1673 71.5776 56.55C71.7736 56.9327 72.0443 57.2313 72.3896 57.446C72.7443 57.6607 73.1456 57.768 73.5936 57.768C74.0509 57.768 74.4383 57.6653 74.7556 57.46C75.0823 57.2547 75.3389 56.9887 75.5256 56.662L76.8136 57.292C76.6643 57.6467 76.4309 57.9687 76.1136 58.258C75.8056 58.538 75.4323 58.762 74.9936 58.93C74.5643 59.0887 74.0929 59.168 73.5796 59.168ZM78.6095 59V51.426H80.1215V52.952L79.9815 52.728C80.1495 52.2333 80.4202 51.8787 80.7935 51.664C81.1669 51.44 81.6149 51.328 82.1375 51.328H82.5995V52.77H81.9415C81.4189 52.77 80.9942 52.9333 80.6675 53.26C80.3502 53.5773 80.1915 54.0347 80.1915 54.632V59H78.6095ZM83.6818 59V48.402H85.2638V52.91L85.0118 52.714C85.1985 52.238 85.4971 51.8787 85.9078 51.636C86.3185 51.384 86.7945 51.258 87.3358 51.258C87.8958 51.258 88.3905 51.3793 88.8198 51.622C89.2491 51.8647 89.5851 52.2007 89.8278 52.63C90.0705 53.0593 90.1918 53.5493 90.1918 54.1V59H88.6238V54.534C88.6238 54.1513 88.5491 53.8293 88.3998 53.568C88.2598 53.2973 88.0638 53.092 87.8118 52.952C87.5598 52.8027 87.2705 52.728 86.9438 52.728C86.6265 52.728 86.3371 52.8027 86.0758 52.952C85.8238 53.092 85.6231 53.2973 85.4738 53.568C85.3338 53.8387 85.2638 54.1607 85.2638 54.534V59H83.6818ZM95.5389 59.168C94.8109 59.168 94.1436 58.9953 93.5369 58.65C92.9396 58.3047 92.4636 57.8333 92.1089 57.236C91.7543 56.6387 91.5769 55.962 91.5769 55.206C91.5769 54.4407 91.7543 53.764 92.1089 53.176C92.4636 52.5787 92.9396 52.112 93.5369 51.776C94.1343 51.4307 94.8016 51.258 95.5389 51.258C96.2856 51.258 96.9529 51.4307 97.5409 51.776C98.1383 52.112 98.6096 52.5787 98.9549 53.176C99.3096 53.764 99.4869 54.4407 99.4869 55.206C99.4869 55.9713 99.3096 56.6527 98.9549 57.25C98.6003 57.8473 98.1243 58.3187 97.5269 58.664C96.9296 59 96.2669 59.168 95.5389 59.168ZM95.5389 57.698C95.9869 57.698 96.3836 57.5907 96.7289 57.376C97.0743 57.1613 97.3449 56.8673 97.5409 56.494C97.7463 56.1113 97.8489 55.682 97.8489 55.206C97.8489 54.73 97.7463 54.3053 97.5409 53.932C97.3449 53.5587 97.0743 53.2647 96.7289 53.05C96.3836 52.8353 95.9869 52.728 95.5389 52.728C95.1003 52.728 94.7036 52.8353 94.3489 53.05C94.0036 53.2647 93.7283 53.5587 93.5229 53.932C93.3269 54.3053 93.2289 54.73 93.2289 55.206C93.2289 55.682 93.3269 56.1113 93.5229 56.494C93.7283 56.8673 94.0036 57.1613 94.3489 57.376C94.7036 57.5907 95.1003 57.698 95.5389 57.698ZM93.2289 50.04V48.29H94.9789V50.04H93.2289ZM96.0989 50.04V48.29H97.8489V50.04H96.0989ZM101.031 59V48.402H102.613V52.91L102.361 52.714C102.548 52.238 102.847 51.8787 103.257 51.636C103.668 51.384 104.144 51.258 104.685 51.258C105.245 51.258 105.74 51.3793 106.169 51.622C106.599 51.8647 106.935 52.2007 107.177 52.63C107.42 53.0593 107.541 53.5493 107.541 54.1V59H105.973V54.534C105.973 54.1513 105.899 53.8293 105.749 53.568C105.609 53.2973 105.413 53.092 105.161 52.952C104.909 52.8027 104.62 52.728 104.293 52.728C103.976 52.728 103.687 52.8027 103.425 52.952C103.173 53.092 102.973 53.2973 102.823 53.568C102.683 53.8387 102.613 54.1607 102.613 54.534V59H101.031ZM111.937 59.168C111.367 59.168 110.868 59.042 110.439 58.79C110.009 58.5287 109.673 58.1693 109.431 57.712C109.197 57.2453 109.081 56.7087 109.081 56.102V51.426H110.663V55.962C110.663 56.3073 110.733 56.6107 110.873 56.872C111.013 57.1333 111.209 57.3387 111.461 57.488C111.713 57.628 112.002 57.698 112.329 57.698C112.665 57.698 112.959 57.6233 113.211 57.474C113.463 57.3247 113.659 57.1147 113.799 56.844C113.948 56.5733 114.023 56.256 114.023 55.892V51.426H115.591V59H114.093V57.516L114.261 57.712C114.083 58.1787 113.789 58.538 113.379 58.79C112.968 59.042 112.487 59.168 111.937 59.168ZM117.438 59V51.426H118.95V52.91L118.768 52.714C118.954 52.238 119.253 51.8787 119.664 51.636C120.074 51.384 120.55 51.258 121.092 51.258C121.652 51.258 122.146 51.3793 122.576 51.622C123.005 51.8647 123.341 52.2007 123.584 52.63C123.826 53.0593 123.948 53.554 123.948 54.114V59H122.38V54.534C122.38 54.1513 122.31 53.8293 122.17 53.568C122.03 53.2973 121.829 53.092 121.568 52.952C121.316 52.8027 121.026 52.728 120.7 52.728C120.373 52.728 120.079 52.8027 119.818 52.952C119.566 53.092 119.37 53.2973 119.23 53.568C119.09 53.8387 119.02 54.1607 119.02 54.534V59H117.438ZM129.295 62.08C128.744 62.08 128.235 61.9913 127.769 61.814C127.302 61.6367 126.901 61.3893 126.565 61.072C126.229 60.764 125.977 60.4 125.809 59.98L127.265 59.378C127.395 59.7327 127.633 60.0267 127.979 60.26C128.333 60.4933 128.767 60.61 129.281 60.61C129.682 60.61 130.041 60.5307 130.359 60.372C130.676 60.2227 130.928 59.9987 131.115 59.7C131.301 59.4107 131.395 59.0607 131.395 58.65V56.942L131.675 57.264C131.413 57.7493 131.049 58.118 130.583 58.37C130.125 58.622 129.607 58.748 129.029 58.748C128.329 58.748 127.699 58.5847 127.139 58.258C126.579 57.9313 126.135 57.4833 125.809 56.914C125.491 56.3447 125.333 55.7053 125.333 54.996C125.333 54.2773 125.491 53.638 125.809 53.078C126.135 52.518 126.574 52.0747 127.125 51.748C127.675 51.4213 128.305 51.258 129.015 51.258C129.593 51.258 130.107 51.384 130.555 51.636C131.012 51.8787 131.385 52.2333 131.675 52.7L131.465 53.092V51.426H132.963V58.65C132.963 59.3033 132.804 59.8867 132.487 60.4C132.179 60.9227 131.749 61.3333 131.199 61.632C130.648 61.9307 130.013 62.08 129.295 62.08ZM129.211 57.278C129.631 57.278 130.004 57.18 130.331 56.984C130.657 56.7787 130.914 56.508 131.101 56.172C131.297 55.8267 131.395 55.4393 131.395 55.01C131.395 54.5807 131.297 54.1933 131.101 53.848C130.905 53.5027 130.643 53.232 130.317 53.036C129.99 52.8307 129.621 52.728 129.211 52.728C128.781 52.728 128.399 52.8307 128.063 53.036C127.727 53.232 127.461 53.5027 127.265 53.848C127.078 54.184 126.985 54.5713 126.985 55.01C126.985 55.43 127.078 55.8127 127.265 56.158C127.461 56.5033 127.727 56.7787 128.063 56.984C128.399 57.18 128.781 57.278 129.211 57.278Z" fill="#121D2F"/>
<path d="M238.6 58.5V57.48L241.048 54.864C241.528 54.352 241.904 53.94 242.176 53.628C242.456 53.308 242.656 53.028 242.776 52.788C242.904 52.548 242.968 52.296 242.968 52.032C242.968 51.6 242.836 51.268 242.572 51.036C242.308 50.796 241.968 50.676 241.552 50.676C241.12 50.676 240.748 50.8 240.436 51.048C240.124 51.288 239.908 51.64 239.788 52.104L238.54 51.744C238.636 51.272 238.828 50.864 239.116 50.52C239.404 50.168 239.756 49.896 240.172 49.704C240.596 49.512 241.052 49.416 241.54 49.416C242.108 49.416 242.604 49.524 243.028 49.74C243.452 49.948 243.78 50.24 244.012 50.616C244.252 50.992 244.372 51.428 244.372 51.924C244.372 52.252 244.308 52.572 244.18 52.884C244.06 53.188 243.872 53.512 243.616 53.856C243.36 54.192 243.032 54.572 242.632 54.996L240.472 57.3H244.54V58.5H238.6ZM248.688 58.644C248.208 58.644 247.756 58.556 247.332 58.38C246.916 58.204 246.556 57.956 246.252 57.636C245.956 57.316 245.744 56.94 245.616 56.508L246.816 56.052C246.976 56.476 247.22 56.804 247.548 57.036C247.876 57.268 248.256 57.384 248.688 57.384C249.04 57.384 249.344 57.316 249.6 57.18C249.864 57.044 250.068 56.852 250.212 56.604C250.364 56.356 250.44 56.056 250.44 55.704C250.44 55.36 250.364 55.064 250.212 54.816C250.068 54.568 249.864 54.38 249.6 54.252C249.344 54.124 249.04 54.06 248.688 54.06C248.544 54.06 248.396 54.072 248.244 54.096C248.1 54.12 247.972 54.152 247.86 54.192L247.548 53.532L249.9 50.76H246.096V49.56H251.484V50.7L249.18 53.46L249.144 53.004C249.68 53.012 250.152 53.132 250.56 53.364C250.968 53.588 251.284 53.9 251.508 54.3C251.74 54.692 251.856 55.148 251.856 55.668C251.856 56.228 251.72 56.736 251.448 57.192C251.176 57.64 250.8 57.996 250.32 58.26C249.848 58.516 249.304 58.644 248.688 58.644ZM253.648 60.264V59.604C253.912 59.54 254.116 59.416 254.26 59.232C254.404 59.056 254.492 58.812 254.524 58.5H253.888V56.94H255.268V57.96C255.268 58.6 255.132 59.116 254.86 59.508C254.588 59.9 254.184 60.152 253.648 60.264ZM260.225 58.644C259.601 58.644 259.053 58.524 258.581 58.284C258.117 58.036 257.757 57.708 257.501 57.3C257.245 56.884 257.117 56.424 257.117 55.92C257.117 55.344 257.273 54.848 257.585 54.432C257.905 54.008 258.353 53.7 258.929 53.508L258.869 53.868C258.445 53.708 258.109 53.44 257.861 53.064C257.621 52.68 257.501 52.26 257.501 51.804C257.501 51.348 257.617 50.94 257.849 50.58C258.089 50.22 258.413 49.936 258.821 49.728C259.237 49.52 259.705 49.416 260.225 49.416C260.753 49.416 261.221 49.52 261.629 49.728C262.037 49.928 262.357 50.208 262.589 50.568C262.829 50.928 262.949 51.34 262.949 51.804C262.949 52.276 262.825 52.7 262.577 53.076C262.337 53.444 262.009 53.708 261.593 53.868L261.533 53.508C262.109 53.708 262.557 54.016 262.877 54.432C263.197 54.848 263.357 55.344 263.357 55.92C263.357 56.424 263.225 56.884 262.961 57.3C262.705 57.708 262.341 58.036 261.869 58.284C261.397 58.524 260.849 58.644 260.225 58.644ZM260.225 57.444C260.569 57.444 260.869 57.38 261.125 57.252C261.381 57.116 261.581 56.932 261.725 56.7C261.869 56.468 261.941 56.196 261.941 55.884C261.941 55.572 261.869 55.3 261.725 55.068C261.581 54.836 261.381 54.656 261.125 54.528C260.869 54.4 260.569 54.336 260.225 54.336C259.889 54.336 259.593 54.4 259.337 54.528C259.081 54.656 258.881 54.836 258.737 55.068C258.593 55.3 258.521 55.572 258.521 55.884C258.521 56.196 258.593 56.468 258.737 56.7C258.881 56.932 259.081 57.116 259.337 57.252C259.593 57.38 259.889 57.444 260.225 57.444ZM260.225 53.136C260.481 53.136 260.705 53.084 260.897 52.98C261.097 52.868 261.253 52.716 261.365 52.524C261.477 52.332 261.533 52.116 261.533 51.876C261.533 51.628 261.477 51.412 261.365 51.228C261.253 51.036 261.097 50.888 260.897 50.784C260.705 50.672 260.481 50.616 260.225 50.616C259.977 50.616 259.753 50.672 259.553 50.784C259.353 50.888 259.197 51.036 259.085 51.228C258.973 51.412 258.917 51.628 258.917 51.876C258.917 52.116 258.973 52.332 259.085 52.524C259.197 52.716 259.353 52.868 259.553 52.98C259.753 53.084 259.977 53.136 260.225 53.136ZM267.796 58.644C267.172 58.644 266.624 58.524 266.152 58.284C265.688 58.036 265.328 57.708 265.072 57.3C264.816 56.884 264.688 56.424 264.688 55.92C264.688 55.344 264.844 54.848 265.156 54.432C265.476 54.008 265.924 53.7 266.5 53.508L266.44 53.868C266.016 53.708 265.68 53.44 265.432 53.064C265.192 52.68 265.072 52.26 265.072 51.804C265.072 51.348 265.188 50.94 265.42 50.58C265.66 50.22 265.984 49.936 266.392 49.728C266.808 49.52 267.276 49.416 267.796 49.416C268.324 49.416 268.792 49.52 269.2 49.728C269.608 49.928 269.928 50.208 270.16 50.568C270.4 50.928 270.52 51.34 270.52 51.804C270.52 52.276 270.396 52.7 270.148 53.076C269.908 53.444 269.58 53.708 269.164 53.868L269.104 53.508C269.68 53.708 270.128 54.016 270.448 54.432C270.768 54.848 270.928 55.344 270.928 55.92C270.928 56.424 270.796 56.884 270.532 57.3C270.276 57.708 269.912 58.036 269.44 58.284C268.968 58.524 268.42 58.644 267.796 58.644ZM267.796 57.444C268.14 57.444 268.44 57.38 268.696 57.252C268.952 57.116 269.152 56.932 269.296 56.7C269.44 56.468 269.512 56.196 269.512 55.884C269.512 55.572 269.44 55.3 269.296 55.068C269.152 54.836 268.952 54.656 268.696 54.528C268.44 54.4 268.14 54.336 267.796 54.336C267.46 54.336 267.164 54.4 266.908 54.528C266.652 54.656 266.452 54.836 266.308 55.068C266.164 55.3 266.092 55.572 266.092 55.884C266.092 56.196 266.164 56.468 266.308 56.7C266.452 56.932 266.652 57.116 266.908 57.252C267.164 57.38 267.46 57.444 267.796 57.444ZM267.796 53.136C268.052 53.136 268.276 53.084 268.468 52.98C268.668 52.868 268.824 52.716 268.936 52.524C269.048 52.332 269.104 52.116 269.104 51.876C269.104 51.628 269.048 51.412 268.936 51.228C268.824 51.036 268.668 50.888 268.468 50.784C268.276 50.672 268.052 50.616 267.796 50.616C267.548 50.616 267.324 50.672 267.124 50.784C266.924 50.888 266.768 51.036 266.656 51.228C266.544 51.412 266.488 51.628 266.488 51.876C266.488 52.116 266.544 52.332 266.656 52.524C266.768 52.716 266.924 52.868 267.124 52.98C267.324 53.084 267.548 53.136 267.796 53.136ZM276.95 58.644C276.374 58.644 275.842 58.532 275.354 58.308C274.866 58.076 274.442 57.756 274.082 57.348C273.722 56.932 273.442 56.444 273.242 55.884C273.042 55.316 272.942 54.696 272.942 54.024C272.942 53.352 273.038 52.736 273.23 52.176C273.43 51.616 273.71 51.128 274.07 50.712C274.43 50.296 274.854 49.976 275.342 49.752C275.838 49.528 276.378 49.416 276.962 49.416C277.754 49.416 278.45 49.624 279.05 50.04C279.658 50.448 280.082 51.008 280.322 51.72L279.062 52.224C278.886 51.736 278.61 51.356 278.234 51.084C277.866 50.812 277.438 50.676 276.95 50.676C276.462 50.676 276.018 50.82 275.618 51.108C275.226 51.388 274.914 51.78 274.682 52.284C274.45 52.788 274.334 53.368 274.334 54.024C274.334 54.68 274.446 55.264 274.67 55.776C274.894 56.28 275.202 56.676 275.594 56.964C275.986 57.244 276.434 57.384 276.938 57.384C277.434 57.384 277.866 57.248 278.234 56.976C278.61 56.696 278.886 56.316 279.062 55.836L280.322 56.34C280.162 56.812 279.918 57.22 279.59 57.564C279.262 57.908 278.874 58.176 278.426 58.368C277.978 58.552 277.486 58.644 276.95 58.644ZM271.922 55.368V54.444H277.274V55.368H271.922ZM271.922 53.604V52.668H277.274V53.604H271.922Z" fill="#0EB03B"/>
<path d="M16 79H301V136C301 144.837 293.837 152 285 152H32C23.1634 152 16 144.837 16 136V79Z" fill="white"/>
<path d="M51.465 105.337C50.6775 101.872 47.655 100.312 45 100.312C45 100.312 45 100.312 44.9925 100.312C42.345 100.312 39.315 101.865 38.5275 105.33C37.65 109.2 40.02 112.477 42.165 114.54C42.96 115.305 43.98 115.688 45 115.688C46.02 115.688 47.04 115.305 47.8275 114.54C49.9725 112.477 52.3425 109.207 51.465 105.337ZM45 109.095C43.695 109.095 42.6375 108.038 42.6375 106.733C42.6375 105.428 43.695 104.37 45 104.37C46.305 104.37 47.3625 105.428 47.3625 106.733C47.3625 108.038 46.305 109.095 45 109.095Z" fill="#121D2F"/>
<path d="M58.6 112.5V111.48L61.048 108.864C61.528 108.352 61.904 107.94 62.176 107.628C62.456 107.308 62.656 107.028 62.776 106.788C62.904 106.548 62.968 106.296 62.968 106.032C62.968 105.6 62.836 105.268 62.572 105.036C62.308 104.796 61.968 104.676 61.552 104.676C61.12 104.676 60.748 104.8 60.436 105.048C60.124 105.288 59.908 105.64 59.788 106.104L58.54 105.744C58.636 105.272 58.828 104.864 59.116 104.52C59.404 104.168 59.756 103.896 60.172 103.704C60.596 103.512 61.052 103.416 61.54 103.416C62.108 103.416 62.604 103.524 63.028 103.74C63.452 103.948 63.78 104.24 64.012 104.616C64.252 104.992 64.372 105.428 64.372 105.924C64.372 106.252 64.308 106.572 64.18 106.884C64.06 107.188 63.872 107.512 63.616 107.856C63.36 108.192 63.032 108.572 62.632 108.996L60.472 111.3H64.54V112.5H58.6ZM69.4799 112.644C68.7679 112.644 68.1439 112.452 67.6079 112.068C67.0719 111.676 66.6519 111.136 66.3479 110.448C66.0519 109.752 65.9039 108.944 65.9039 108.024C65.9039 107.096 66.0519 106.288 66.3479 105.6C66.6519 104.912 67.0679 104.376 67.5959 103.992C68.1319 103.608 68.7559 103.416 69.4679 103.416C70.1799 103.416 70.7999 103.608 71.3279 103.992C71.8639 104.376 72.2799 104.916 72.5759 105.612C72.8799 106.3 73.0319 107.104 73.0319 108.024C73.0319 108.944 72.8839 109.752 72.5879 110.448C72.2919 111.136 71.8759 111.676 71.3399 112.068C70.8119 112.452 70.1919 112.644 69.4799 112.644ZM69.4799 111.348C69.9199 111.348 70.2999 111.212 70.6199 110.94C70.9399 110.668 71.1879 110.284 71.3639 109.788C71.5399 109.292 71.6279 108.704 71.6279 108.024C71.6279 107.344 71.5399 106.756 71.3639 106.26C71.1879 105.764 70.9399 105.38 70.6199 105.108C70.2999 104.836 69.9159 104.7 69.4679 104.7C69.0279 104.7 68.6479 104.836 68.3279 105.108C68.0079 105.38 67.7599 105.764 67.5839 106.26C67.4079 106.756 67.3199 107.344 67.3199 108.024C67.3199 108.696 67.4079 109.284 67.5839 109.788C67.7599 110.284 68.0079 110.668 68.3279 110.94C68.6559 111.212 69.0399 111.348 69.4799 111.348ZM75.5377 112.5L82.8097 103.56H84.3217L77.0497 112.5H75.5377ZM76.9057 108.096C76.4657 108.096 76.0697 107.992 75.7177 107.784C75.3657 107.568 75.0817 107.284 74.8657 106.932C74.6577 106.58 74.5537 106.188 74.5537 105.756C74.5537 105.324 74.6577 104.932 74.8657 104.58C75.0817 104.22 75.3657 103.936 75.7177 103.728C76.0697 103.52 76.4657 103.416 76.9057 103.416C77.3457 103.416 77.7417 103.52 78.0937 103.728C78.4457 103.936 78.7257 104.22 78.9337 104.58C79.1417 104.932 79.2457 105.324 79.2457 105.756C79.2457 106.188 79.1417 106.58 78.9337 106.932C78.7257 107.284 78.4457 107.568 78.0937 107.784C77.7417 107.992 77.3457 108.096 76.9057 108.096ZM76.9057 107.004C77.1537 107.004 77.3657 106.944 77.5417 106.824C77.7257 106.704 77.8657 106.548 77.9617 106.356C78.0577 106.164 78.1057 105.964 78.1057 105.756C78.1057 105.54 78.0577 105.34 77.9617 105.156C77.8657 104.964 77.7257 104.808 77.5417 104.688C77.3657 104.568 77.1537 104.508 76.9057 104.508C76.6657 104.508 76.4537 104.568 76.2697 104.688C76.0857 104.808 75.9417 104.964 75.8377 105.156C75.7417 105.34 75.6937 105.54 75.6937 105.756C75.6937 105.964 75.7417 106.164 75.8377 106.356C75.9417 106.548 76.0857 106.704 76.2697 106.824C76.4537 106.944 76.6657 107.004 76.9057 107.004ZM82.8937 112.644C82.4537 112.644 82.0537 112.54 81.6937 112.332C81.3417 112.116 81.0617 111.832 80.8537 111.48C80.6457 111.128 80.5417 110.736 80.5417 110.304C80.5417 109.872 80.6457 109.48 80.8537 109.128C81.0617 108.768 81.3417 108.484 81.6937 108.276C82.0537 108.068 82.4537 107.964 82.8937 107.964C83.3337 107.964 83.7297 108.068 84.0817 108.276C84.4337 108.484 84.7137 108.768 84.9217 109.128C85.1297 109.48 85.2337 109.872 85.2337 110.304C85.2337 110.736 85.1297 111.128 84.9217 111.48C84.7137 111.832 84.4337 112.116 84.0817 112.332C83.7297 112.54 83.3337 112.644 82.8937 112.644ZM82.8937 111.552C83.1417 111.552 83.3537 111.492 83.5297 111.372C83.7057 111.252 83.8417 111.096 83.9377 110.904C84.0417 110.712 84.0937 110.512 84.0937 110.304C84.0937 110.088 84.0417 109.888 83.9377 109.704C83.8417 109.512 83.7057 109.356 83.5297 109.236C83.3537 109.116 83.1417 109.056 82.8937 109.056C82.6537 109.056 82.4417 109.116 82.2577 109.236C82.0737 109.356 81.9297 109.512 81.8257 109.704C81.7297 109.888 81.6817 110.088 81.6817 110.304C81.6817 110.512 81.7297 110.712 81.8257 110.904C81.9297 111.096 82.0737 111.252 82.2577 111.372C82.4417 111.492 82.6537 111.552 82.8937 111.552ZM93.2409 112.644C92.6089 112.644 92.0209 112.528 91.4769 112.296C90.9409 112.064 90.4689 111.744 90.0609 111.336C89.6609 110.92 89.3489 110.432 89.1249 109.872C88.9009 109.312 88.7889 108.696 88.7889 108.024C88.7889 107.36 88.8969 106.748 89.1129 106.188C89.3369 105.62 89.6489 105.132 90.0489 104.724C90.4489 104.308 90.9169 103.988 91.4529 103.764C91.9889 103.532 92.5769 103.416 93.2169 103.416C93.8489 103.416 94.4129 103.524 94.9089 103.74C95.4129 103.956 95.8369 104.24 96.1809 104.592C96.5249 104.936 96.7729 105.312 96.9249 105.72L95.6649 106.332C95.4809 105.844 95.1769 105.452 94.7529 105.156C94.3289 104.852 93.8169 104.7 93.2169 104.7C92.6249 104.7 92.1009 104.84 91.6449 105.12C91.1889 105.4 90.8329 105.788 90.5769 106.284C90.3289 106.78 90.2049 107.36 90.2049 108.024C90.2049 108.688 90.3329 109.272 90.5889 109.776C90.8529 110.272 91.2129 110.66 91.6689 110.94C92.1249 111.212 92.6489 111.348 93.2409 111.348C93.7369 111.348 94.1889 111.248 94.5969 111.048C95.0129 110.84 95.3449 110.552 95.5929 110.184C95.8409 109.808 95.9649 109.372 95.9649 108.876V108.264L96.6009 108.84H93.2169V107.64H97.3689V108.48C97.3689 109.136 97.2569 109.724 97.0329 110.244C96.8089 110.756 96.5049 111.192 96.1209 111.552C95.7369 111.912 95.2969 112.184 94.8009 112.368C94.3049 112.552 93.7849 112.644 93.2409 112.644ZM101.731 112.644C101.083 112.644 100.507 112.496 100.003 112.2C99.5066 111.896 99.1186 111.488 98.8386 110.976C98.5586 110.456 98.4186 109.876 98.4186 109.236C98.4186 108.58 98.5586 108 98.8386 107.496C99.1266 106.992 99.5106 106.596 99.9906 106.308C100.471 106.012 101.015 105.864 101.623 105.864C102.111 105.864 102.547 105.948 102.931 106.116C103.315 106.284 103.639 106.516 103.903 106.812C104.167 107.1 104.367 107.432 104.503 107.808C104.647 108.184 104.719 108.584 104.719 109.008C104.719 109.112 104.715 109.22 104.707 109.332C104.699 109.444 104.683 109.548 104.659 109.644H99.4866V108.564H103.891L103.243 109.056C103.323 108.664 103.295 108.316 103.159 108.012C103.031 107.7 102.831 107.456 102.559 107.28C102.295 107.096 101.983 107.004 101.623 107.004C101.263 107.004 100.943 107.096 100.663 107.28C100.383 107.456 100.167 107.712 100.015 108.048C99.8626 108.376 99.8026 108.776 99.8346 109.248C99.7946 109.688 99.8546 110.072 100.015 110.4C100.183 110.728 100.415 110.984 100.711 111.168C101.015 111.352 101.359 111.444 101.743 111.444C102.135 111.444 102.467 111.356 102.739 111.18C103.019 111.004 103.239 110.776 103.399 110.496L104.503 111.036C104.375 111.34 104.175 111.616 103.903 111.864C103.639 112.104 103.319 112.296 102.943 112.44C102.575 112.576 102.171 112.644 101.731 112.644ZM107.614 112.5L105.382 106.008H106.822L108.526 111.18H108.022L109.762 106.008H110.998L112.726 111.18H112.222L113.938 106.008H115.378L113.134 112.5H111.91L110.158 107.208H110.602L108.85 112.5H107.614ZM116.308 112.5V106.008H117.664V112.5H116.308ZM116.308 105.12V103.56H117.664V105.12H116.308ZM119.249 112.5V106.008H120.545V107.28L120.389 107.112C120.549 106.704 120.805 106.396 121.157 106.188C121.509 105.972 121.917 105.864 122.381 105.864C122.861 105.864 123.285 105.968 123.653 106.176C124.021 106.384 124.309 106.672 124.517 107.04C124.725 107.408 124.829 107.832 124.829 108.312V112.5H123.485V108.672C123.485 108.344 123.425 108.068 123.305 107.844C123.185 107.612 123.013 107.436 122.789 107.316C122.573 107.188 122.325 107.124 122.045 107.124C121.765 107.124 121.513 107.188 121.289 107.316C121.073 107.436 120.905 107.612 120.785 107.844C120.665 108.076 120.605 108.352 120.605 108.672V112.5H119.249ZM126.28 112.5V106.008H127.576V107.28L127.42 107.112C127.58 106.704 127.836 106.396 128.188 106.188C128.54 105.972 128.948 105.864 129.412 105.864C129.892 105.864 130.316 105.968 130.684 106.176C131.052 106.384 131.34 106.672 131.548 107.04C131.756 107.408 131.86 107.832 131.86 108.312V112.5H130.516V108.672C130.516 108.344 130.456 108.068 130.336 107.844C130.216 107.612 130.044 107.436 129.82 107.316C129.604 107.188 129.356 107.124 129.076 107.124C128.796 107.124 128.544 107.188 128.32 107.316C128.104 107.436 127.936 107.612 127.816 107.844C127.696 108.076 127.636 108.352 127.636 108.672V112.5H126.28ZM135.712 112.644C135.048 112.644 134.464 112.48 133.96 112.152C133.464 111.824 133.116 111.384 132.916 110.832L133.96 110.34C134.136 110.708 134.376 111 134.68 111.216C134.992 111.432 135.336 111.54 135.712 111.54C136.032 111.54 136.292 111.468 136.492 111.324C136.692 111.18 136.792 110.984 136.792 110.736C136.792 110.576 136.748 110.448 136.66 110.352C136.572 110.248 136.46 110.164 136.324 110.1C136.196 110.036 136.064 109.988 135.928 109.956L134.908 109.668C134.348 109.508 133.928 109.268 133.648 108.948C133.376 108.62 133.24 108.24 133.24 107.808C133.24 107.416 133.34 107.076 133.54 106.788C133.74 106.492 134.016 106.264 134.368 106.104C134.72 105.944 135.116 105.864 135.556 105.864C136.148 105.864 136.676 106.012 137.14 106.308C137.604 106.596 137.932 107 138.124 107.52L137.08 108.012C136.952 107.7 136.748 107.452 136.468 107.268C136.196 107.084 135.888 106.992 135.544 106.992C135.248 106.992 135.012 107.064 134.836 107.208C134.66 107.344 134.572 107.524 134.572 107.748C134.572 107.9 134.612 108.028 134.692 108.132C134.772 108.228 134.876 108.308 135.004 108.372C135.132 108.428 135.264 108.476 135.4 108.516L136.456 108.828C136.992 108.98 137.404 109.22 137.692 109.548C137.98 109.868 138.124 110.252 138.124 110.7C138.124 111.084 138.02 111.424 137.812 111.72C137.612 112.008 137.332 112.236 136.972 112.404C136.612 112.564 136.192 112.644 135.712 112.644ZM142.26 112.572C141.58 112.572 141.052 112.38 140.676 111.996C140.3 111.612 140.112 111.072 140.112 110.376V107.232H138.972V106.008H139.152C139.456 106.008 139.692 105.92 139.86 105.744C140.028 105.568 140.112 105.328 140.112 105.024V104.52H141.468V106.008H142.944V107.232H141.468V110.316C141.468 110.54 141.504 110.732 141.576 110.892C141.648 111.044 141.764 111.164 141.924 111.252C142.084 111.332 142.292 111.372 142.548 111.372C142.612 111.372 142.684 111.368 142.764 111.36C142.844 111.352 142.92 111.344 142.992 111.336V112.5C142.88 112.516 142.756 112.532 142.62 112.548C142.484 112.564 142.364 112.572 142.26 112.572ZM147.246 112.644C146.598 112.644 146.022 112.496 145.518 112.2C145.022 111.896 144.634 111.488 144.354 110.976C144.074 110.456 143.934 109.876 143.934 109.236C143.934 108.58 144.074 108 144.354 107.496C144.642 106.992 145.026 106.596 145.506 106.308C145.986 106.012 146.53 105.864 147.138 105.864C147.626 105.864 148.062 105.948 148.446 106.116C148.83 106.284 149.154 106.516 149.418 106.812C149.682 107.1 149.882 107.432 150.018 107.808C150.162 108.184 150.234 108.584 150.234 109.008C150.234 109.112 150.23 109.22 150.222 109.332C150.214 109.444 150.198 109.548 150.174 109.644H145.002V108.564H149.406L148.758 109.056C148.838 108.664 148.81 108.316 148.674 108.012C148.546 107.7 148.346 107.456 148.074 107.28C147.81 107.096 147.498 107.004 147.138 107.004C146.778 107.004 146.458 107.096 146.178 107.28C145.898 107.456 145.682 107.712 145.53 108.048C145.378 108.376 145.318 108.776 145.35 109.248C145.31 109.688 145.37 110.072 145.53 110.4C145.698 110.728 145.93 110.984 146.226 111.168C146.53 111.352 146.874 111.444 147.258 111.444C147.65 111.444 147.982 111.356 148.254 111.18C148.534 111.004 148.754 110.776 148.914 110.496L150.018 111.036C149.89 111.34 149.69 111.616 149.418 111.864C149.154 112.104 148.834 112.296 148.458 112.44C148.09 112.576 147.686 112.644 147.246 112.644ZM151.558 112.5V106.008H152.914V112.5H151.558ZM151.558 105.12V103.56H152.914V105.12H151.558ZM157.631 115.14C157.159 115.14 156.723 115.064 156.323 114.912C155.923 114.76 155.579 114.548 155.291 114.276C155.003 114.012 154.787 113.7 154.643 113.34L155.891 112.824C156.003 113.128 156.207 113.38 156.503 113.58C156.807 113.78 157.179 113.88 157.619 113.88C157.963 113.88 158.271 113.812 158.543 113.676C158.815 113.548 159.031 113.356 159.191 113.1C159.351 112.852 159.431 112.552 159.431 112.2V110.736L159.671 111.012C159.447 111.428 159.135 111.744 158.735 111.96C158.343 112.176 157.899 112.284 157.403 112.284C156.803 112.284 156.263 112.144 155.783 111.864C155.303 111.584 154.923 111.2 154.643 110.712C154.371 110.224 154.235 109.676 154.235 109.068C154.235 108.452 154.371 107.904 154.643 107.424C154.923 106.944 155.299 106.564 155.771 106.284C156.243 106.004 156.783 105.864 157.391 105.864C157.887 105.864 158.327 105.972 158.711 106.188C159.103 106.396 159.423 106.7 159.671 107.1L159.491 107.436V106.008H160.775V112.2C160.775 112.76 160.639 113.26 160.367 113.7C160.103 114.148 159.735 114.5 159.263 114.756C158.791 115.012 158.247 115.14 157.631 115.14ZM157.559 111.024C157.919 111.024 158.239 110.94 158.519 110.772C158.799 110.596 159.019 110.364 159.179 110.076C159.347 109.78 159.431 109.448 159.431 109.08C159.431 108.712 159.347 108.38 159.179 108.084C159.011 107.788 158.787 107.556 158.507 107.388C158.227 107.212 157.911 107.124 157.559 107.124C157.191 107.124 156.863 107.212 156.575 107.388C156.287 107.556 156.059 107.788 155.891 108.084C155.731 108.372 155.651 108.704 155.651 109.08C155.651 109.44 155.731 109.768 155.891 110.064C156.059 110.36 156.287 110.596 156.575 110.772C156.863 110.94 157.191 111.024 157.559 111.024ZM165.41 112.644C164.762 112.644 164.186 112.496 163.682 112.2C163.186 111.896 162.798 111.488 162.518 110.976C162.238 110.456 162.098 109.876 162.098 109.236C162.098 108.58 162.238 108 162.518 107.496C162.806 106.992 163.19 106.596 163.67 106.308C164.15 106.012 164.694 105.864 165.302 105.864C165.79 105.864 166.226 105.948 166.61 106.116C166.994 106.284 167.318 106.516 167.582 106.812C167.846 107.1 168.046 107.432 168.182 107.808C168.326 108.184 168.398 108.584 168.398 109.008C168.398 109.112 168.394 109.22 168.386 109.332C168.378 109.444 168.362 109.548 168.338 109.644H163.166V108.564H167.57L166.922 109.056C167.002 108.664 166.974 108.316 166.838 108.012C166.71 107.7 166.51 107.456 166.238 107.28C165.974 107.096 165.662 107.004 165.302 107.004C164.942 107.004 164.622 107.096 164.342 107.28C164.062 107.456 163.846 107.712 163.694 108.048C163.542 108.376 163.482 108.776 163.514 109.248C163.474 109.688 163.534 110.072 163.694 110.4C163.862 110.728 164.094 110.984 164.39 111.168C164.694 111.352 165.038 111.444 165.422 111.444C165.814 111.444 166.146 111.356 166.418 111.18C166.698 111.004 166.918 110.776 167.078 110.496L168.182 111.036C168.054 111.34 167.854 111.616 167.582 111.864C167.318 112.104 166.998 112.296 166.622 112.44C166.254 112.576 165.85 112.644 165.41 112.644ZM169.722 112.5V106.008H171.018V107.316L170.898 107.124C171.042 106.7 171.274 106.396 171.594 106.212C171.914 106.02 172.298 105.924 172.746 105.924H173.142V107.16H172.578C172.13 107.16 171.766 107.3 171.486 107.58C171.214 107.852 171.078 108.244 171.078 108.756V112.5H169.722ZM176.385 112.644C175.897 112.644 175.469 112.536 175.101 112.32C174.733 112.096 174.445 111.788 174.237 111.396C174.037 110.996 173.937 110.536 173.937 110.016V106.008H175.293V109.896C175.293 110.192 175.353 110.452 175.473 110.676C175.593 110.9 175.761 111.076 175.977 111.204C176.193 111.324 176.441 111.384 176.721 111.384C177.009 111.384 177.261 111.32 177.477 111.192C177.693 111.064 177.861 110.884 177.981 110.652C178.109 110.42 178.173 110.148 178.173 109.836V106.008H179.517V112.5H178.233V111.228L178.377 111.396C178.225 111.796 177.973 112.104 177.621 112.32C177.269 112.536 176.857 112.644 176.385 112.644ZM181.101 112.5V106.008H182.397V107.28L182.241 107.112C182.401 106.704 182.657 106.396 183.009 106.188C183.361 105.972 183.769 105.864 184.233 105.864C184.713 105.864 185.137 105.968 185.505 106.176C185.873 106.384 186.161 106.672 186.369 107.04C186.577 107.408 186.681 107.832 186.681 108.312V112.5H185.337V108.672C185.337 108.344 185.277 108.068 185.157 107.844C185.037 107.612 184.865 107.436 184.641 107.316C184.425 107.188 184.177 107.124 183.897 107.124C183.617 107.124 183.365 107.188 183.141 107.316C182.925 107.436 182.757 107.612 182.637 107.844C182.517 108.076 182.457 108.352 182.457 108.672V112.5H181.101ZM191.264 115.14C190.792 115.14 190.356 115.064 189.956 114.912C189.556 114.76 189.212 114.548 188.924 114.276C188.636 114.012 188.42 113.7 188.276 113.34L189.524 112.824C189.636 113.128 189.84 113.38 190.136 113.58C190.44 113.78 190.812 113.88 191.252 113.88C191.596 113.88 191.904 113.812 192.176 113.676C192.448 113.548 192.664 113.356 192.824 113.1C192.984 112.852 193.064 112.552 193.064 112.2V110.736L193.304 111.012C193.08 111.428 192.768 111.744 192.368 111.96C191.976 112.176 191.532 112.284 191.036 112.284C190.436 112.284 189.896 112.144 189.416 111.864C188.936 111.584 188.556 111.2 188.276 110.712C188.004 110.224 187.868 109.676 187.868 109.068C187.868 108.452 188.004 107.904 188.276 107.424C188.556 106.944 188.932 106.564 189.404 106.284C189.876 106.004 190.416 105.864 191.024 105.864C191.52 105.864 191.96 105.972 192.344 106.188C192.736 106.396 193.056 106.7 193.304 107.1L193.124 107.436V106.008H194.408V112.2C194.408 112.76 194.272 113.26 194 113.7C193.736 114.148 193.368 114.5 192.896 114.756C192.424 115.012 191.88 115.14 191.264 115.14ZM191.192 111.024C191.552 111.024 191.872 110.94 192.152 110.772C192.432 110.596 192.652 110.364 192.812 110.076C192.98 109.78 193.064 109.448 193.064 109.08C193.064 108.712 192.98 108.38 192.812 108.084C192.644 107.788 192.42 107.556 192.14 107.388C191.86 107.212 191.544 107.124 191.192 107.124C190.824 107.124 190.496 107.212 190.208 107.388C189.92 107.556 189.692 107.788 189.524 108.084C189.364 108.372 189.284 108.704 189.284 109.08C189.284 109.44 189.364 109.768 189.524 110.064C189.692 110.36 189.92 110.596 190.208 110.772C190.496 110.94 190.824 111.024 191.192 111.024Z" fill="#121D2F"/>
<path d="M58.996 132V123.06H61.924C62.828 123.06 63.616 123.244 64.288 123.612C64.96 123.98 65.48 124.5 65.848 125.172C66.216 125.836 66.4 126.62 66.4 127.524C66.4 128.42 66.216 129.204 65.848 129.876C65.48 130.548 64.96 131.072 64.288 131.448C63.616 131.816 62.828 132 61.924 132H58.996ZM60.172 130.92H61.936C62.6 130.92 63.172 130.78 63.652 130.5C64.14 130.22 64.516 129.828 64.78 129.324C65.044 128.812 65.176 128.212 65.176 127.524C65.176 126.828 65.04 126.228 64.768 125.724C64.504 125.22 64.128 124.832 63.64 124.56C63.16 124.28 62.592 124.14 61.936 124.14H60.172V130.92ZM70.0505 132.144C69.5865 132.144 69.1665 132.036 68.7905 131.82C68.4225 131.604 68.1345 131.304 67.9265 130.92C67.7265 130.528 67.6265 130.08 67.6265 129.576V125.532H68.7425V129.456C68.7425 129.776 68.8065 130.056 68.9345 130.296C69.0705 130.536 69.2545 130.724 69.4865 130.86C69.7265 130.996 69.9985 131.064 70.3025 131.064C70.6065 131.064 70.8745 130.996 71.1065 130.86C71.3465 130.724 71.5305 130.528 71.6585 130.272C71.7945 130.016 71.8625 129.712 71.8625 129.36V125.532H72.9905V132H71.8985V130.74L72.0785 130.848C71.9265 131.256 71.6665 131.576 71.2985 131.808C70.9385 132.032 70.5225 132.144 70.0505 132.144ZM74.7195 132V125.532H75.8115V126.72L75.6915 126.552C75.8435 126.184 76.0755 125.912 76.3875 125.736C76.6995 125.552 77.0795 125.46 77.5275 125.46H77.9235V126.516H77.3595C76.9035 126.516 76.5355 126.66 76.2555 126.948C75.9755 127.228 75.8355 127.628 75.8355 128.148V132H74.7195ZM81.9148 132.144C81.2828 132.144 80.7188 131.996 80.2228 131.7C79.7348 131.404 79.3508 131 79.0708 130.488C78.7908 129.976 78.6508 129.4 78.6508 128.76C78.6508 128.112 78.7908 127.536 79.0708 127.032C79.3508 126.528 79.7348 126.128 80.2228 125.832C80.7188 125.536 81.2828 125.388 81.9148 125.388C82.3388 125.388 82.7348 125.464 83.1028 125.616C83.4708 125.768 83.7948 125.972 84.0748 126.228C84.3548 126.484 84.5588 126.784 84.6868 127.128L83.6908 127.608C83.5388 127.272 83.3068 127 82.9948 126.792C82.6828 126.576 82.3228 126.468 81.9148 126.468C81.5228 126.468 81.1668 126.568 80.8468 126.768C80.5348 126.968 80.2868 127.24 80.1028 127.584C79.9188 127.928 79.8268 128.324 79.8268 128.772C79.8268 129.204 79.9188 129.596 80.1028 129.948C80.2868 130.292 80.5348 130.564 80.8468 130.764C81.1668 130.964 81.5228 131.064 81.9148 131.064C82.3228 131.064 82.6828 130.96 82.9948 130.752C83.3068 130.536 83.5388 130.252 83.6908 129.9L84.6868 130.404C84.5588 130.74 84.3548 131.04 84.0748 131.304C83.7948 131.56 83.4708 131.764 83.1028 131.916C82.7348 132.068 82.3388 132.144 81.9148 132.144ZM86.1453 132V122.916H87.2613V126.792L87.0573 126.684C87.2173 126.276 87.4733 125.96 87.8253 125.736C88.1853 125.504 88.6053 125.388 89.0853 125.388C89.5493 125.388 89.9613 125.492 90.3213 125.7C90.6893 125.908 90.9773 126.196 91.1853 126.564C91.4013 126.932 91.5093 127.348 91.5093 127.812V132H90.3813V128.172C90.3813 127.812 90.3133 127.508 90.1773 127.26C90.0493 127.012 89.8693 126.82 89.6373 126.684C89.4053 126.54 89.1373 126.468 88.8333 126.468C88.5373 126.468 88.2693 126.54 88.0293 126.684C87.7893 126.82 87.6013 127.016 87.4653 127.272C87.3293 127.52 87.2613 127.82 87.2613 128.172V132H86.1453ZM95.3124 132V123.06H96.4884V128.088L96.2004 127.968L100.472 123.06H101.948L98.3604 127.2L98.4204 126.36L102.128 132H100.724L97.8924 127.752L96.4884 129.36V132H95.3124ZM104.905 132.144C104.481 132.144 104.105 132.068 103.777 131.916C103.457 131.756 103.205 131.54 103.021 131.268C102.837 130.988 102.745 130.668 102.745 130.308C102.745 129.964 102.817 129.656 102.961 129.384C103.113 129.104 103.345 128.868 103.657 128.676C103.977 128.484 104.377 128.348 104.857 128.268L107.257 127.872V128.808L105.109 129.168C104.693 129.24 104.389 129.372 104.197 129.564C104.013 129.756 103.921 129.992 103.921 130.272C103.921 130.536 104.025 130.756 104.233 130.932C104.449 131.108 104.717 131.196 105.037 131.196C105.445 131.196 105.797 131.112 106.093 130.944C106.397 130.768 106.633 130.532 106.801 130.236C106.977 129.94 107.065 129.612 107.065 129.252V127.608C107.065 127.256 106.933 126.972 106.669 126.756C106.413 126.532 106.073 126.42 105.649 126.42C105.281 126.42 104.953 126.516 104.665 126.708C104.385 126.892 104.177 127.14 104.041 127.452L103.069 126.948C103.189 126.652 103.381 126.388 103.645 126.156C103.909 125.916 104.217 125.728 104.569 125.592C104.921 125.456 105.289 125.388 105.673 125.388C106.169 125.388 106.605 125.484 106.981 125.676C107.357 125.86 107.649 126.12 107.857 126.456C108.073 126.784 108.181 127.168 108.181 127.608V132H107.089V130.776L107.293 130.848C107.157 131.104 106.973 131.328 106.741 131.52C106.509 131.712 106.237 131.864 105.925 131.976C105.613 132.088 105.273 132.144 104.905 132.144ZM109.911 132V122.916H111.027V132H109.911ZM112.759 132V122.916H113.875V129.144L113.419 129.036L116.851 125.532H118.279L115.795 128.136L118.447 132H117.127L114.703 128.496L115.399 128.46L113.515 130.428L113.875 129.612V132H112.759ZM121.742 132.144C121.278 132.144 120.858 132.036 120.482 131.82C120.114 131.604 119.826 131.304 119.618 130.92C119.418 130.528 119.318 130.08 119.318 129.576V125.532H120.434V129.456C120.434 129.776 120.498 130.056 120.626 130.296C120.762 130.536 120.946 130.724 121.178 130.86C121.418 130.996 121.69 131.064 121.994 131.064C122.298 131.064 122.566 130.996 122.798 130.86C123.038 130.724 123.222 130.528 123.35 130.272C123.486 130.016 123.554 129.712 123.554 129.36V125.532H124.682V132H123.59V130.74L123.77 130.848C123.618 131.256 123.358 131.576 122.99 131.808C122.63 132.032 122.214 132.144 121.742 132.144ZM126.411 132V122.916H127.527V132H126.411ZM131.155 132.144C130.731 132.144 130.355 132.068 130.027 131.916C129.707 131.756 129.455 131.54 129.271 131.268C129.087 130.988 128.995 130.668 128.995 130.308C128.995 129.964 129.067 129.656 129.211 129.384C129.363 129.104 129.595 128.868 129.907 128.676C130.227 128.484 130.627 128.348 131.107 128.268L133.507 127.872V128.808L131.359 129.168C130.943 129.24 130.639 129.372 130.447 129.564C130.263 129.756 130.171 129.992 130.171 130.272C130.171 130.536 130.275 130.756 130.483 130.932C130.699 131.108 130.967 131.196 131.287 131.196C131.695 131.196 132.047 131.112 132.343 130.944C132.647 130.768 132.883 130.532 133.051 130.236C133.227 129.94 133.315 129.612 133.315 129.252V127.608C133.315 127.256 133.183 126.972 132.919 126.756C132.663 126.532 132.323 126.42 131.899 126.42C131.531 126.42 131.203 126.516 130.915 126.708C130.635 126.892 130.427 127.14 130.291 127.452L129.319 126.948C129.439 126.652 129.631 126.388 129.895 126.156C130.159 125.916 130.467 125.728 130.819 125.592C131.171 125.456 131.539 125.388 131.923 125.388C132.419 125.388 132.855 125.484 133.231 125.676C133.607 125.86 133.899 126.12 134.107 126.456C134.323 126.784 134.431 127.168 134.431 127.608V132H133.339V130.776L133.543 130.848C133.407 131.104 133.223 131.328 132.991 131.52C132.759 131.712 132.487 131.864 132.175 131.976C131.863 132.088 131.523 132.144 131.155 132.144ZM138.672 132.072C138.04 132.072 137.552 131.892 137.208 131.532C136.872 131.172 136.704 130.664 136.704 130.008V126.6H135.528V125.532H135.768C136.056 125.532 136.284 125.444 136.452 125.268C136.62 125.092 136.704 124.86 136.704 124.572V124.044H137.82V125.532H139.272V126.6H137.82V129.972C137.82 130.188 137.852 130.376 137.916 130.536C137.988 130.696 138.104 130.824 138.264 130.92C138.424 131.008 138.636 131.052 138.9 131.052C138.956 131.052 139.024 131.048 139.104 131.04C139.192 131.032 139.272 131.024 139.344 131.016V132C139.24 132.024 139.124 132.04 138.996 132.048C138.868 132.064 138.76 132.072 138.672 132.072ZM140.802 132V125.532H141.918V132H140.802ZM140.802 124.5V123.06H141.918V124.5H140.802ZM146.721 132.144C146.097 132.144 145.533 132 145.029 131.712C144.525 131.416 144.125 131.012 143.829 130.5C143.533 129.988 143.385 129.408 143.385 128.76C143.385 128.112 143.529 127.536 143.817 127.032C144.113 126.528 144.513 126.128 145.017 125.832C145.521 125.536 146.089 125.388 146.721 125.388C147.345 125.388 147.909 125.536 148.413 125.832C148.917 126.12 149.313 126.516 149.601 127.02C149.897 127.524 150.045 128.104 150.045 128.76C150.045 129.416 149.893 130 149.589 130.512C149.285 131.016 148.881 131.416 148.377 131.712C147.881 132 147.329 132.144 146.721 132.144ZM146.721 131.064C147.121 131.064 147.481 130.964 147.801 130.764C148.129 130.564 148.385 130.288 148.569 129.936C148.761 129.584 148.857 129.192 148.857 128.76C148.857 128.32 148.761 127.932 148.569 127.596C148.385 127.252 148.129 126.98 147.801 126.78C147.481 126.572 147.121 126.468 146.721 126.468C146.313 126.468 145.945 126.572 145.617 126.78C145.297 126.98 145.041 127.252 144.849 127.596C144.657 127.932 144.561 128.32 144.561 128.76C144.561 129.192 144.657 129.584 144.849 129.936C145.041 130.288 145.297 130.564 145.617 130.764C145.945 130.964 146.313 131.064 146.721 131.064ZM151.501 132V125.532H152.593V126.792L152.413 126.684C152.573 126.276 152.829 125.96 153.181 125.736C153.541 125.504 153.961 125.388 154.441 125.388C154.905 125.388 155.317 125.492 155.677 125.7C156.045 125.908 156.333 126.196 156.541 126.564C156.757 126.932 156.865 127.348 156.865 127.812V132H155.737V128.172C155.737 127.812 155.673 127.508 155.545 127.26C155.417 127.012 155.233 126.82 154.993 126.684C154.761 126.54 154.493 126.468 154.189 126.468C153.885 126.468 153.613 126.54 153.373 126.684C153.141 126.82 152.957 127.016 152.821 127.272C152.685 127.52 152.617 127.82 152.617 128.172V132H151.501Z" fill="#C9CFD9"/>
<path d="M241.078 120.5V110.07H247.952V111.54H242.73V114.536H247.672V116.006H242.73V119.03H247.952V120.5H241.078ZM249.332 120.5V112.926H250.844V114.452L250.704 114.228C250.872 113.733 251.143 113.379 251.516 113.164C251.89 112.94 252.338 112.828 252.86 112.828H253.322V114.27H252.664C252.142 114.27 251.717 114.433 251.39 114.76C251.073 115.077 250.914 115.535 250.914 116.132V120.5H249.332ZM257.817 120.584C257.024 120.584 256.408 120.36 255.969 119.912C255.531 119.464 255.311 118.834 255.311 118.022V114.354H253.981V112.926H254.191C254.546 112.926 254.821 112.823 255.017 112.618C255.213 112.413 255.311 112.133 255.311 111.778V111.19H256.893V112.926H258.615V114.354H256.893V117.952C256.893 118.213 256.935 118.437 257.019 118.624C257.103 118.801 257.239 118.941 257.425 119.044C257.612 119.137 257.855 119.184 258.153 119.184C258.228 119.184 258.312 119.179 258.405 119.17C258.499 119.161 258.587 119.151 258.671 119.142V120.5C258.541 120.519 258.396 120.537 258.237 120.556C258.079 120.575 257.939 120.584 257.817 120.584ZM263.634 120.668C262.878 120.668 262.206 120.495 261.618 120.15C261.04 119.795 260.587 119.319 260.26 118.722C259.934 118.115 259.77 117.439 259.77 116.692C259.77 115.927 259.934 115.25 260.26 114.662C260.596 114.074 261.044 113.612 261.604 113.276C262.164 112.931 262.799 112.758 263.508 112.758C264.078 112.758 264.586 112.856 265.034 113.052C265.482 113.248 265.86 113.519 266.168 113.864C266.476 114.2 266.71 114.587 266.868 115.026C267.036 115.465 267.12 115.931 267.12 116.426C267.12 116.547 267.116 116.673 267.106 116.804C267.097 116.935 267.078 117.056 267.05 117.168H261.016V115.908H266.154L265.398 116.482C265.492 116.025 265.459 115.619 265.3 115.264C265.151 114.9 264.918 114.615 264.6 114.41C264.292 114.195 263.928 114.088 263.508 114.088C263.088 114.088 262.715 114.195 262.388 114.41C262.062 114.615 261.81 114.914 261.632 115.306C261.455 115.689 261.385 116.155 261.422 116.706C261.376 117.219 261.446 117.667 261.632 118.05C261.828 118.433 262.099 118.731 262.444 118.946C262.799 119.161 263.2 119.268 263.648 119.268C264.106 119.268 264.493 119.165 264.81 118.96C265.137 118.755 265.394 118.489 265.58 118.162L266.868 118.792C266.719 119.147 266.486 119.469 266.168 119.758C265.86 120.038 265.487 120.262 265.048 120.43C264.619 120.589 264.148 120.668 263.634 120.668ZM268.664 120.5V112.926H270.246V120.5H268.664ZM268.664 111.89V110.07H270.246V111.89H268.664ZM272.096 120.5V109.902H273.678V120.5H272.096ZM278.804 120.584C278.01 120.584 277.394 120.36 276.956 119.912C276.517 119.464 276.298 118.834 276.298 118.022V114.354H274.968V112.926H275.178C275.532 112.926 275.808 112.823 276.004 112.618C276.2 112.413 276.298 112.133 276.298 111.778V111.19H277.88V112.926H279.602V114.354H277.88V117.952C277.88 118.213 277.922 118.437 278.006 118.624C278.09 118.801 278.225 118.941 278.412 119.044C278.598 119.137 278.841 119.184 279.14 119.184C279.214 119.184 279.298 119.179 279.392 119.17C279.485 119.161 279.574 119.151 279.658 119.142V120.5C279.527 120.519 279.382 120.537 279.224 120.556C279.065 120.575 278.925 120.584 278.804 120.584Z" fill="#364050"/>
</g>
<g filter="url(#filter1_d_416_837)">
<rect x="151" y="5" width="115" height="34" rx="17" fill="#001333" shape-rendering="crispEdges"/>
<path d="M167.924 26.5V17.56H169.244L172.604 22.216H171.944L175.244 17.56H176.564V26.5H175.16V19.228L175.688 19.372L172.316 23.98H172.172L168.872 19.372L169.34 19.228V26.5H167.924ZM178.28 26.5V20.008H179.636V26.5H178.28ZM178.28 19.12V17.56H179.636V19.12H178.28ZM184.03 26.572C183.35 26.572 182.822 26.38 182.446 25.996C182.07 25.612 181.882 25.072 181.882 24.376V21.232H180.742V20.008H180.922C181.226 20.008 181.462 19.92 181.63 19.744C181.798 19.568 181.882 19.328 181.882 19.024V18.52H183.238V20.008H184.714V21.232H183.238V24.316C183.238 24.54 183.274 24.732 183.346 24.892C183.418 25.044 183.534 25.164 183.694 25.252C183.854 25.332 184.062 25.372 184.318 25.372C184.382 25.372 184.454 25.368 184.534 25.36C184.614 25.352 184.69 25.344 184.762 25.336V26.5C184.65 26.516 184.526 26.532 184.39 26.548C184.254 26.564 184.134 26.572 184.03 26.572ZM187.97 26.644C187.53 26.644 187.142 26.568 186.806 26.416C186.478 26.256 186.222 26.04 186.038 25.768C185.854 25.488 185.762 25.16 185.762 24.784C185.762 24.432 185.838 24.116 185.99 23.836C186.15 23.556 186.394 23.32 186.722 23.128C187.05 22.936 187.462 22.8 187.958 22.72L190.214 22.348V23.416L188.222 23.764C187.862 23.828 187.598 23.944 187.43 24.112C187.262 24.272 187.178 24.48 187.178 24.736C187.178 24.984 187.27 25.188 187.454 25.348C187.646 25.5 187.89 25.576 188.186 25.576C188.554 25.576 188.874 25.496 189.146 25.336C189.426 25.176 189.642 24.964 189.794 24.7C189.946 24.428 190.022 24.128 190.022 23.8V22.132C190.022 21.812 189.902 21.552 189.662 21.352C189.43 21.144 189.118 21.04 188.726 21.04C188.366 21.04 188.05 21.136 187.778 21.328C187.514 21.512 187.318 21.752 187.19 22.048L186.062 21.484C186.182 21.164 186.378 20.884 186.65 20.644C186.922 20.396 187.238 20.204 187.598 20.068C187.966 19.932 188.354 19.864 188.762 19.864C189.274 19.864 189.726 19.96 190.118 20.152C190.518 20.344 190.826 20.612 191.042 20.956C191.266 21.292 191.378 21.684 191.378 22.132V26.5H190.082V25.324L190.358 25.36C190.206 25.624 190.01 25.852 189.77 26.044C189.538 26.236 189.27 26.384 188.966 26.488C188.67 26.592 188.338 26.644 187.97 26.644ZM192.964 26.5V20.008H194.26V21.316L194.14 21.124C194.284 20.7 194.516 20.396 194.836 20.212C195.156 20.02 195.54 19.924 195.988 19.924H196.384V21.16H195.82C195.372 21.16 195.008 21.3 194.728 21.58C194.456 21.852 194.32 22.244 194.32 22.756V26.5H192.964ZM200.78 26.644C200.276 26.644 199.816 26.54 199.4 26.332C198.992 26.124 198.676 25.824 198.452 25.432L198.608 25.18V26.5H197.312V17.416H198.668V21.352L198.452 21.04C198.692 20.672 199.012 20.384 199.412 20.176C199.812 19.968 200.268 19.864 200.78 19.864C201.396 19.864 201.948 20.012 202.436 20.308C202.932 20.604 203.32 21.008 203.6 21.52C203.888 22.032 204.032 22.608 204.032 23.248C204.032 23.888 203.888 24.464 203.6 24.976C203.32 25.488 202.936 25.896 202.448 26.2C201.96 26.496 201.404 26.644 200.78 26.644ZM200.648 25.384C201.032 25.384 201.372 25.292 201.668 25.108C201.964 24.924 202.196 24.672 202.364 24.352C202.54 24.024 202.628 23.656 202.628 23.248C202.628 22.84 202.54 22.476 202.364 22.156C202.196 21.836 201.964 21.584 201.668 21.4C201.372 21.216 201.032 21.124 200.648 21.124C200.272 21.124 199.932 21.216 199.628 21.4C199.332 21.584 199.096 21.836 198.92 22.156C198.752 22.476 198.668 22.84 198.668 23.248C198.668 23.656 198.752 24.024 198.92 24.352C199.096 24.672 199.332 24.924 199.628 25.108C199.932 25.292 200.272 25.384 200.648 25.384ZM208.399 26.644C207.751 26.644 207.175 26.496 206.671 26.2C206.175 25.896 205.787 25.488 205.507 24.976C205.227 24.456 205.087 23.876 205.087 23.236C205.087 22.58 205.227 22 205.507 21.496C205.795 20.992 206.179 20.596 206.659 20.308C207.139 20.012 207.683 19.864 208.291 19.864C208.779 19.864 209.215 19.948 209.599 20.116C209.983 20.284 210.307 20.516 210.571 20.812C210.835 21.1 211.035 21.432 211.171 21.808C211.315 22.184 211.387 22.584 211.387 23.008C211.387 23.112 211.383 23.22 211.375 23.332C211.367 23.444 211.351 23.548 211.327 23.644H206.155V22.564H210.559L209.911 23.056C209.991 22.664 209.963 22.316 209.827 22.012C209.699 21.7 209.499 21.456 209.227 21.28C208.963 21.096 208.651 21.004 208.291 21.004C207.931 21.004 207.611 21.096 207.331 21.28C207.051 21.456 206.835 21.712 206.683 22.048C206.531 22.376 206.471 22.776 206.503 23.248C206.463 23.688 206.523 24.072 206.683 24.4C206.851 24.728 207.083 24.984 207.379 25.168C207.683 25.352 208.027 25.444 208.411 25.444C208.803 25.444 209.135 25.356 209.407 25.18C209.687 25.004 209.907 24.776 210.067 24.496L211.171 25.036C211.043 25.34 210.843 25.616 210.571 25.864C210.307 26.104 209.987 26.296 209.611 26.44C209.243 26.576 208.839 26.644 208.399 26.644ZM212.71 26.5V20.008H214.066V26.5H212.71ZM212.71 19.12V17.56H214.066V19.12H212.71ZM218.459 26.572C217.779 26.572 217.251 26.38 216.875 25.996C216.499 25.612 216.311 25.072 216.311 24.376V21.232H215.171V20.008H215.351C215.655 20.008 215.891 19.92 216.059 19.744C216.227 19.568 216.311 19.328 216.311 19.024V18.52H217.667V20.008H219.143V21.232H217.667V24.316C217.667 24.54 217.703 24.732 217.775 24.892C217.847 25.044 217.963 25.164 218.123 25.252C218.283 25.332 218.491 25.372 218.747 25.372C218.811 25.372 218.883 25.368 218.963 25.36C219.043 25.352 219.119 25.344 219.191 25.336V26.5C219.079 26.516 218.955 26.532 218.819 26.548C218.683 26.564 218.563 26.572 218.459 26.572ZM223.445 26.644C222.797 26.644 222.221 26.496 221.717 26.2C221.221 25.896 220.833 25.488 220.553 24.976C220.273 24.456 220.133 23.876 220.133 23.236C220.133 22.58 220.273 22 220.553 21.496C220.841 20.992 221.225 20.596 221.705 20.308C222.185 20.012 222.729 19.864 223.337 19.864C223.825 19.864 224.261 19.948 224.645 20.116C225.029 20.284 225.353 20.516 225.617 20.812C225.881 21.1 226.081 21.432 226.217 21.808C226.361 22.184 226.433 22.584 226.433 23.008C226.433 23.112 226.429 23.22 226.421 23.332C226.413 23.444 226.397 23.548 226.373 23.644H221.201V22.564H225.605L224.957 23.056C225.037 22.664 225.009 22.316 224.873 22.012C224.745 21.7 224.545 21.456 224.273 21.28C224.009 21.096 223.697 21.004 223.337 21.004C222.977 21.004 222.657 21.096 222.377 21.28C222.097 21.456 221.881 21.712 221.729 22.048C221.577 22.376 221.517 22.776 221.549 23.248C221.509 23.688 221.569 24.072 221.729 24.4C221.897 24.728 222.129 24.984 222.425 25.168C222.729 25.352 223.073 25.444 223.457 25.444C223.849 25.444 224.181 25.356 224.453 25.18C224.733 25.004 224.953 24.776 225.113 24.496L226.217 25.036C226.089 25.34 225.889 25.616 225.617 25.864C225.353 26.104 225.033 26.296 224.657 26.44C224.289 26.576 223.885 26.644 223.445 26.644ZM227.757 26.5V20.008H229.053V21.316L228.933 21.124C229.077 20.7 229.309 20.396 229.629 20.212C229.949 20.02 230.333 19.924 230.781 19.924H231.177V21.16H230.613C230.165 21.16 229.801 21.3 229.521 21.58C229.249 21.852 229.113 22.244 229.113 22.756V26.5H227.757Z" fill="white"/>
<path d="M236 27.98H250V13.98H236V27.98Z" fill="#062966"/>
</g>
<defs>
<filter id="filter0_d_416_837" x="0" y="21" width="317" height="155" filterUnits="userSpaceOnUse" color-interpolation-filters="sRGB">
<feFlood flood-opacity="0" result="BackgroundImageFix"/>
<feColorMatrix in="SourceAlpha" type="matrix" values="0 0 0 0 0 0 0 0 0 0 0 0 0 0 0 0 0 0 127 0" result="hardAlpha"/>
<feOffset dy="8"/>
<feGaussianBlur stdDeviation="8"/>
<feComposite in2="hardAlpha" operator="out"/>
<feColorMatrix type="matrix" values="0 0 0 0 0.146667 0 0 0 0 0.386222 0 0 0 0 0.8 0 0 0 0.15 0"/>
<feBlend mode="normal" in2="BackgroundImageFix" result="effect1_dropShadow_416_837"/>
<feBlend mode="normal" in="SourceGraphic" in2="effect1_dropShadow_416_837" result="shape"/>
</filter>
<filter id="filter1_d_416_837" x="142" y="0" width="133" height="52" filterUnits="userSpaceOnUse" color-interpolation-filters="sRGB">
<feFlood flood-opacity="0" result="BackgroundImageFix"/>
<feColorMatrix in="SourceAlpha" type="matrix" values="0 0 0 0 0 0 0 0 0 0 0 0 0 0 0 0 0 0 127 0" result="hardAlpha"/>
<feOffset dy="4"/>
<feGaussianBlur stdDeviation="4.5"/>
<feComposite in2="hardAlpha" operator="out"/>
<feColorMatrix type="matrix" values="0 0 0 0 0.150955 0 0 0 0 0.380041 0 0 0 0 0.770833 0 0 0 0.2 0"/>
<feBlend mode="normal" in2="BackgroundImageFix" result="effect1_dropShadow_416_837"/>
<feBlend mode="normal" in="SourceGraphic" in2="effect1_dropShadow_416_837" result="shape"/>
</filter>
</defs>
</svg>
