<svg width="229" height="104" viewBox="0 0 229 104" fill="none" xmlns="http://www.w3.org/2000/svg">
<g filter="url(#filter0_d_416_667)">
<rect x="16" y="8" width="197" height="72" rx="36" fill="white" shape-rendering="crispEdges"/>
<path d="M39.264 48V45.588H36.852V44.388H39.264V42H40.464V44.388H42.852V45.588H40.464V48H39.264ZM44.2992 48V46.98L46.7472 44.364C47.2272 43.852 47.6032 43.44 47.8752 43.128C48.1552 42.808 48.3552 42.528 48.4752 42.288C48.6032 42.048 48.6672 41.796 48.6672 41.532C48.6672 41.1 48.5352 40.768 48.2712 40.536C48.0072 40.296 47.6672 40.176 47.2512 40.176C46.8192 40.176 46.4472 40.3 46.1352 40.548C45.8232 40.788 45.6072 41.14 45.4872 41.604L44.2392 41.244C44.3352 40.772 44.5272 40.364 44.8152 40.02C45.1032 39.668 45.4552 39.396 45.8712 39.204C46.2952 39.012 46.7512 38.916 47.2392 38.916C47.8072 38.916 48.3032 39.024 48.7272 39.24C49.1512 39.448 49.4792 39.74 49.7112 40.116C49.9512 40.492 50.0712 40.928 50.0712 41.424C50.0712 41.752 50.0072 42.072 49.8792 42.384C49.7592 42.688 49.5712 43.012 49.3152 43.356C49.0592 43.692 48.7312 44.072 48.3312 44.496L46.1712 46.8H50.2392V48H44.2992ZM52.9831 48V40.26H51.2671V39.06H54.3871V48H52.9831ZM57.3463 48L64.6183 39.06H66.1303L58.8583 48H57.3463ZM58.7143 43.596C58.2743 43.596 57.8783 43.492 57.5263 43.284C57.1743 43.068 56.8903 42.784 56.6743 42.432C56.4663 42.08 56.3623 41.688 56.3623 41.256C56.3623 40.824 56.4663 40.432 56.6743 40.08C56.8903 39.72 57.1743 39.436 57.5263 39.228C57.8783 39.02 58.2743 38.916 58.7143 38.916C59.1543 38.916 59.5503 39.02 59.9023 39.228C60.2543 39.436 60.5343 39.72 60.7423 40.08C60.9503 40.432 61.0543 40.824 61.0543 41.256C61.0543 41.688 60.9503 42.08 60.7423 42.432C60.5343 42.784 60.2543 43.068 59.9023 43.284C59.5503 43.492 59.1543 43.596 58.7143 43.596ZM58.7143 42.504C58.9623 42.504 59.1743 42.444 59.3503 42.324C59.5343 42.204 59.6743 42.048 59.7703 41.856C59.8663 41.664 59.9143 41.464 59.9143 41.256C59.9143 41.04 59.8663 40.84 59.7703 40.656C59.6743 40.464 59.5343 40.308 59.3503 40.188C59.1743 40.068 58.9623 40.008 58.7143 40.008C58.4743 40.008 58.2623 40.068 58.0783 40.188C57.8943 40.308 57.7503 40.464 57.6463 40.656C57.5503 40.84 57.5023 41.04 57.5023 41.256C57.5023 41.464 57.5503 41.664 57.6463 41.856C57.7503 42.048 57.8943 42.204 58.0783 42.324C58.2623 42.444 58.4743 42.504 58.7143 42.504ZM64.7023 48.144C64.2623 48.144 63.8623 48.04 63.5023 47.832C63.1503 47.616 62.8703 47.332 62.6623 46.98C62.4543 46.628 62.3503 46.236 62.3503 45.804C62.3503 45.372 62.4543 44.98 62.6623 44.628C62.8703 44.268 63.1503 43.984 63.5023 43.776C63.8623 43.568 64.2623 43.464 64.7023 43.464C65.1423 43.464 65.5383 43.568 65.8903 43.776C66.2423 43.984 66.5223 44.268 66.7303 44.628C66.9383 44.98 67.0423 45.372 67.0423 45.804C67.0423 46.236 66.9383 46.628 66.7303 46.98C66.5223 47.332 66.2423 47.616 65.8903 47.832C65.5383 48.04 65.1423 48.144 64.7023 48.144ZM64.7023 47.052C64.9503 47.052 65.1623 46.992 65.3383 46.872C65.5143 46.752 65.6503 46.596 65.7463 46.404C65.8503 46.212 65.9023 46.012 65.9023 45.804C65.9023 45.588 65.8503 45.388 65.7463 45.204C65.6503 45.012 65.5143 44.856 65.3383 44.736C65.1623 44.616 64.9503 44.556 64.7023 44.556C64.4623 44.556 64.2503 44.616 64.0663 44.736C63.8823 44.856 63.7383 45.012 63.6343 45.204C63.5383 45.388 63.4903 45.588 63.4903 45.804C63.4903 46.012 63.5383 46.212 63.6343 46.404C63.7383 46.596 63.8823 46.752 64.0663 46.872C64.2503 46.992 64.4623 47.052 64.7023 47.052Z" fill="#121D2F"/>
<path d="M29.7805 34.9285C27.8337 39.6968 27.4726 44.9648 28.7503 49.9542C30.0281 54.9436 32.877 59.3896 36.8761 62.6351C40.8752 65.8807 45.8123 67.7537 50.9579 67.9774C56.1034 68.201 61.1844 66.7634 65.45 63.8771C69.7156 60.9907 72.9395 56.8087 74.6454 51.949C76.3512 47.0893 76.4485 41.8097 74.9228 36.8905C73.3971 31.9713 70.3294 27.6734 66.173 24.6318C62.0166 21.5903 56.992 19.9666 51.8417 20.0005L51.8741 24.9083C55.9712 24.8813 59.9683 26.173 63.2747 28.5925C66.5811 31.0121 69.0215 34.4311 70.2352 38.3444C71.4489 42.2576 71.3715 46.4575 70.0145 50.3235C68.6575 54.1894 66.0928 57.5162 62.6995 59.8123C59.3062 62.1084 55.2643 63.252 51.171 63.0741C47.0777 62.8962 43.1502 61.4062 39.9689 58.8243C36.7876 56.2425 34.5213 52.7057 33.5048 48.7366C32.4883 44.7675 32.7756 40.5768 34.3243 36.7836L29.7805 34.9285Z" fill="#1AC44A"/>
<path d="M88.996 40V31.06H92.152C92.744 31.06 93.264 31.172 93.712 31.396C94.16 31.62 94.508 31.94 94.756 32.356C95.012 32.772 95.14 33.26 95.14 33.82C95.14 34.38 95.012 34.868 94.756 35.284C94.508 35.692 94.16 36.012 93.712 36.244C93.272 36.468 92.752 36.58 92.152 36.58H90.172V40H88.996ZM90.172 35.5H92.188C92.548 35.5 92.86 35.432 93.124 35.296C93.388 35.16 93.592 34.964 93.736 34.708C93.88 34.452 93.952 34.156 93.952 33.82C93.952 33.476 93.88 33.18 93.736 32.932C93.592 32.676 93.388 32.48 93.124 32.344C92.86 32.208 92.548 32.14 92.188 32.14H90.172V35.5ZM96.5984 40V33.532H97.6904V34.72L97.5704 34.552C97.7224 34.184 97.9544 33.912 98.2664 33.736C98.5784 33.552 98.9584 33.46 99.4064 33.46H99.8024V34.516H99.2384C98.7824 34.516 98.4144 34.66 98.1344 34.948C97.8544 35.228 97.7144 35.628 97.7144 36.148V40H96.5984ZM103.866 40.144C103.242 40.144 102.678 40 102.174 39.712C101.67 39.416 101.27 39.012 100.974 38.5C100.678 37.988 100.53 37.408 100.53 36.76C100.53 36.112 100.674 35.536 100.962 35.032C101.258 34.528 101.658 34.128 102.162 33.832C102.666 33.536 103.234 33.388 103.866 33.388C104.49 33.388 105.054 33.536 105.558 33.832C106.062 34.12 106.458 34.516 106.746 35.02C107.042 35.524 107.19 36.104 107.19 36.76C107.19 37.416 107.038 38 106.734 38.512C106.43 39.016 106.026 39.416 105.522 39.712C105.026 40 104.474 40.144 103.866 40.144ZM103.866 39.064C104.266 39.064 104.626 38.964 104.946 38.764C105.274 38.564 105.53 38.288 105.714 37.936C105.906 37.584 106.002 37.192 106.002 36.76C106.002 36.32 105.906 35.932 105.714 35.596C105.53 35.252 105.274 34.98 104.946 34.78C104.626 34.572 104.266 34.468 103.866 34.468C103.458 34.468 103.09 34.572 102.762 34.78C102.442 34.98 102.186 35.252 101.994 35.596C101.802 35.932 101.706 36.32 101.706 36.76C101.706 37.192 101.802 37.584 101.994 37.936C102.186 38.288 102.442 38.564 102.762 38.764C103.09 38.964 103.458 39.064 103.866 39.064ZM111.585 40.144C110.977 40.144 110.429 39.996 109.941 39.7C109.461 39.404 109.081 39 108.801 38.488C108.521 37.976 108.381 37.404 108.381 36.772C108.381 36.124 108.521 35.548 108.801 35.044C109.081 34.532 109.461 34.128 109.941 33.832C110.429 33.536 110.977 33.388 111.585 33.388C112.121 33.388 112.597 33.504 113.013 33.736C113.429 33.96 113.757 34.264 113.997 34.648L113.817 34.924V30.916H114.945V40H113.853V38.62L113.997 38.812C113.773 39.236 113.445 39.564 113.013 39.796C112.589 40.028 112.113 40.144 111.585 40.144ZM111.681 39.064C112.089 39.064 112.453 38.964 112.773 38.764C113.093 38.564 113.345 38.292 113.529 37.948C113.721 37.596 113.817 37.204 113.817 36.772C113.817 36.332 113.721 35.94 113.529 35.596C113.345 35.244 113.093 34.968 112.773 34.768C112.453 34.568 112.089 34.468 111.681 34.468C111.281 34.468 110.917 34.572 110.589 34.78C110.269 34.98 110.017 35.252 109.833 35.596C109.649 35.932 109.557 36.324 109.557 36.772C109.557 37.204 109.649 37.596 109.833 37.948C110.017 38.292 110.269 38.564 110.589 38.764C110.909 38.964 111.273 39.064 111.681 39.064ZM118.965 40.144C118.501 40.144 118.081 40.036 117.705 39.82C117.337 39.604 117.049 39.304 116.841 38.92C116.641 38.528 116.541 38.08 116.541 37.576V33.532H117.657V37.456C117.657 37.776 117.721 38.056 117.849 38.296C117.985 38.536 118.169 38.724 118.401 38.86C118.641 38.996 118.913 39.064 119.217 39.064C119.521 39.064 119.789 38.996 120.021 38.86C120.261 38.724 120.445 38.528 120.573 38.272C120.709 38.016 120.777 37.712 120.777 37.36V33.532H121.905V40H120.813V38.74L120.993 38.848C120.841 39.256 120.581 39.576 120.213 39.808C119.853 40.032 119.437 40.144 118.965 40.144ZM123.634 40V30.916H124.75V37.144L124.294 37.036L127.726 33.532H129.154L126.67 36.136L129.322 40H128.002L125.578 36.496L126.274 36.46L124.39 38.428L124.75 37.612V40H123.634ZM132.953 40.072C132.321 40.072 131.833 39.892 131.489 39.532C131.153 39.172 130.985 38.664 130.985 38.008V34.6H129.809V33.532H130.049C130.337 33.532 130.565 33.444 130.733 33.268C130.901 33.092 130.985 32.86 130.985 32.572V32.044H132.101V33.532H133.553V34.6H132.101V37.972C132.101 38.188 132.133 38.376 132.197 38.536C132.269 38.696 132.385 38.824 132.545 38.92C132.705 39.008 132.917 39.052 133.181 39.052C133.237 39.052 133.305 39.048 133.385 39.04C133.473 39.032 133.553 39.024 133.625 39.016V40C133.521 40.024 133.405 40.04 133.277 40.048C133.149 40.064 133.041 40.072 132.953 40.072ZM135.083 40V33.532H136.199V40H135.083ZM135.083 32.5V31.06H136.199V32.5H135.083ZM139.73 40L137.198 33.532H138.446L140.474 39.004H140.042L142.082 33.532H143.33L140.786 40H139.73ZM144.329 40V33.532H145.445V40H144.329ZM144.329 32.5V31.06H145.445V32.5H144.329ZM149.805 40.072C149.173 40.072 148.685 39.892 148.341 39.532C148.005 39.172 147.837 38.664 147.837 38.008V34.6H146.661V33.532H146.901C147.189 33.532 147.417 33.444 147.585 33.268C147.753 33.092 147.837 32.86 147.837 32.572V32.044H148.953V33.532H150.405V34.6H148.953V37.972C148.953 38.188 148.985 38.376 149.049 38.536C149.121 38.696 149.237 38.824 149.396 38.92C149.557 39.008 149.769 39.052 150.033 39.052C150.089 39.052 150.157 39.048 150.237 39.04C150.325 39.032 150.405 39.024 150.477 39.016V40C150.373 40.024 150.257 40.04 150.129 40.048C150.001 40.064 149.893 40.072 149.805 40.072ZM153.748 40.144C153.324 40.144 152.948 40.068 152.62 39.916C152.3 39.756 152.048 39.54 151.864 39.268C151.68 38.988 151.588 38.668 151.588 38.308C151.588 37.964 151.66 37.656 151.804 37.384C151.956 37.104 152.188 36.868 152.5 36.676C152.82 36.484 153.22 36.348 153.7 36.268L156.1 35.872V36.808L153.952 37.168C153.536 37.24 153.232 37.372 153.04 37.564C152.856 37.756 152.764 37.992 152.764 38.272C152.764 38.536 152.868 38.756 153.076 38.932C153.292 39.108 153.56 39.196 153.88 39.196C154.288 39.196 154.64 39.112 154.936 38.944C155.24 38.768 155.476 38.532 155.644 38.236C155.82 37.94 155.908 37.612 155.908 37.252V35.608C155.908 35.256 155.776 34.972 155.512 34.756C155.256 34.532 154.916 34.42 154.492 34.42C154.124 34.42 153.796 34.516 153.508 34.708C153.228 34.892 153.02 35.14 152.884 35.452L151.912 34.948C152.032 34.652 152.224 34.388 152.488 34.156C152.752 33.916 153.06 33.728 153.412 33.592C153.764 33.456 154.132 33.388 154.516 33.388C155.012 33.388 155.448 33.484 155.824 33.676C156.2 33.86 156.492 34.12 156.7 34.456C156.916 34.784 157.024 35.168 157.024 35.608V40H155.932V38.776L156.136 38.848C156 39.104 155.816 39.328 155.584 39.52C155.352 39.712 155.08 39.864 154.768 39.976C154.456 40.088 154.116 40.144 153.748 40.144ZM152.692 32.32V30.964H154.036V32.32H152.692ZM154.996 32.32V30.964H156.352V32.32H154.996ZM161.265 40.072C160.633 40.072 160.145 39.892 159.801 39.532C159.465 39.172 159.297 38.664 159.297 38.008V34.6H158.121V33.532H158.361C158.649 33.532 158.877 33.444 159.045 33.268C159.213 33.092 159.297 32.86 159.297 32.572V32.044H160.413V33.532H161.865V34.6H160.413V37.972C160.413 38.188 160.445 38.376 160.509 38.536C160.581 38.696 160.697 38.824 160.857 38.92C161.017 39.008 161.229 39.052 161.493 39.052C161.549 39.052 161.617 39.048 161.697 39.04C161.785 39.032 161.865 39.024 161.937 39.016V40C161.833 40.024 161.717 40.04 161.589 40.048C161.461 40.064 161.353 40.072 161.265 40.072ZM88.864 57V50.532H89.98V57H88.864ZM88.864 49.5V48.06H89.98V49.5H88.864ZM91.7117 57V50.532H92.8037V51.852L92.6477 51.648C92.8077 51.24 93.0637 50.928 93.4157 50.712C93.7677 50.496 94.1637 50.388 94.6037 50.388C95.1077 50.388 95.5597 50.528 95.9597 50.808C96.3677 51.088 96.6477 51.456 96.7997 51.912L96.4877 51.924C96.6557 51.42 96.9397 51.04 97.3397 50.784C97.7397 50.52 98.1837 50.388 98.6717 50.388C99.1197 50.388 99.5237 50.492 99.8837 50.7C100.252 50.908 100.544 51.196 100.76 51.564C100.976 51.932 101.084 52.348 101.084 52.812V57H99.9557V53.172C99.9557 52.812 99.8917 52.508 99.7637 52.26C99.6357 52.012 99.4597 51.82 99.2357 51.684C99.0197 51.54 98.7637 51.468 98.4677 51.468C98.1797 51.468 97.9197 51.54 97.6877 51.684C97.4637 51.82 97.2837 52.016 97.1477 52.272C97.0197 52.52 96.9557 52.82 96.9557 53.172V57H95.8277V53.172C95.8277 52.812 95.7637 52.508 95.6357 52.26C95.5077 52.012 95.3317 51.82 95.1077 51.684C94.8917 51.54 94.6357 51.468 94.3397 51.468C94.0517 51.468 93.7917 51.54 93.5597 51.684C93.3357 51.82 93.1557 52.016 93.0197 52.272C92.8917 52.52 92.8277 52.82 92.8277 53.172V57H91.7117ZM104.743 57V47.916H105.859V57H104.743ZM110.567 57.144C109.943 57.144 109.387 56.996 108.899 56.7C108.411 56.404 108.027 56 107.747 55.488C107.467 54.968 107.327 54.388 107.327 53.748C107.327 53.1 107.463 52.524 107.735 52.02C108.015 51.516 108.391 51.12 108.863 50.832C109.343 50.536 109.879 50.388 110.471 50.388C110.951 50.388 111.375 50.476 111.743 50.652C112.119 50.82 112.435 51.052 112.691 51.348C112.955 51.636 113.155 51.968 113.291 52.344C113.435 52.712 113.507 53.096 113.507 53.496C113.507 53.584 113.499 53.684 113.483 53.796C113.475 53.9 113.463 54 113.447 54.096H108.143V53.136H112.799L112.271 53.568C112.343 53.152 112.303 52.78 112.151 52.452C111.999 52.124 111.775 51.864 111.479 51.672C111.183 51.48 110.847 51.384 110.471 51.384C110.095 51.384 109.751 51.48 109.439 51.672C109.127 51.864 108.883 52.14 108.707 52.5C108.539 52.852 108.471 53.272 108.503 53.76C108.471 54.232 108.543 54.648 108.719 55.008C108.903 55.36 109.159 55.636 109.487 55.836C109.823 56.028 110.187 56.124 110.579 56.124C111.011 56.124 111.375 56.024 111.671 55.824C111.967 55.624 112.207 55.368 112.391 55.056L113.327 55.536C113.199 55.832 112.999 56.104 112.727 56.352C112.463 56.592 112.147 56.784 111.779 56.928C111.419 57.072 111.015 57.144 110.567 57.144ZM117.59 57.072C116.958 57.072 116.47 56.892 116.126 56.532C115.79 56.172 115.622 55.664 115.622 55.008V51.6H114.446V50.532H114.686C114.974 50.532 115.202 50.444 115.37 50.268C115.538 50.092 115.622 49.86 115.622 49.572V49.044H116.738V50.532H118.19V51.6H116.738V54.972C116.738 55.188 116.77 55.376 116.834 55.536C116.906 55.696 117.022 55.824 117.182 55.92C117.342 56.008 117.554 56.052 117.818 56.052C117.874 56.052 117.942 56.048 118.022 56.04C118.11 56.032 118.19 56.024 118.262 56.016V57C118.158 57.024 118.042 57.04 117.914 57.048C117.786 57.064 117.678 57.072 117.59 57.072ZM119.083 57V56.052L122.935 51.192L123.127 51.6H119.275V50.532H124.123V51.48L120.307 56.352L120.115 55.932H124.147V57H119.083ZM127.867 57.072C127.235 57.072 126.747 56.892 126.403 56.532C126.067 56.172 125.899 55.664 125.899 55.008V51.6H124.723V50.532H124.963C125.251 50.532 125.479 50.444 125.647 50.268C125.815 50.092 125.899 49.86 125.899 49.572V49.044H127.015V50.532H128.467V51.6H127.015V54.972C127.015 55.188 127.047 55.376 127.111 55.536C127.183 55.696 127.299 55.824 127.459 55.92C127.619 56.008 127.831 56.052 128.095 56.052C128.151 56.052 128.219 56.048 128.299 56.04C128.387 56.032 128.467 56.024 128.539 56.016V57C128.435 57.024 128.319 57.04 128.191 57.048C128.063 57.064 127.955 57.072 127.867 57.072ZM132.797 57.144C132.173 57.144 131.617 56.996 131.129 56.7C130.641 56.404 130.257 56 129.977 55.488C129.697 54.968 129.557 54.388 129.557 53.748C129.557 53.1 129.693 52.524 129.965 52.02C130.245 51.516 130.621 51.12 131.093 50.832C131.573 50.536 132.109 50.388 132.701 50.388C133.181 50.388 133.605 50.476 133.973 50.652C134.349 50.82 134.665 51.052 134.921 51.348C135.185 51.636 135.385 51.968 135.521 52.344C135.665 52.712 135.737 53.096 135.737 53.496C135.737 53.584 135.729 53.684 135.713 53.796C135.705 53.9 135.693 54 135.677 54.096H130.373V53.136H135.029L134.501 53.568C134.573 53.152 134.533 52.78 134.381 52.452C134.229 52.124 134.005 51.864 133.709 51.672C133.413 51.48 133.077 51.384 132.701 51.384C132.325 51.384 131.981 51.48 131.669 51.672C131.357 51.864 131.113 52.14 130.937 52.5C130.769 52.852 130.701 53.272 130.733 53.76C130.701 54.232 130.773 54.648 130.949 55.008C131.133 55.36 131.389 55.636 131.717 55.836C132.053 56.028 132.417 56.124 132.809 56.124C133.241 56.124 133.605 56.024 133.901 55.824C134.197 55.624 134.437 55.368 134.621 55.056L135.557 55.536C135.429 55.832 135.229 56.104 134.957 56.352C134.693 56.592 134.377 56.784 134.009 56.928C133.649 57.072 133.245 57.144 132.797 57.144ZM137.192 57V50.532H138.284V51.792L138.104 51.684C138.264 51.276 138.52 50.96 138.872 50.736C139.232 50.504 139.652 50.388 140.132 50.388C140.596 50.388 141.008 50.492 141.368 50.7C141.736 50.908 142.024 51.196 142.232 51.564C142.448 51.932 142.556 52.348 142.556 52.812V57H141.428V53.172C141.428 52.812 141.364 52.508 141.236 52.26C141.108 52.012 140.924 51.82 140.684 51.684C140.452 51.54 140.184 51.468 139.88 51.468C139.576 51.468 139.304 51.54 139.064 51.684C138.832 51.82 138.648 52.016 138.512 52.272C138.376 52.52 138.308 52.82 138.308 53.172V57H137.192ZM150.631 57.144C149.999 57.144 149.407 57.032 148.855 56.808C148.303 56.576 147.819 56.252 147.403 55.836C146.995 55.42 146.675 54.932 146.443 54.372C146.211 53.804 146.095 53.188 146.095 52.524C146.095 51.852 146.211 51.236 146.443 50.676C146.675 50.116 146.995 49.628 147.403 49.212C147.819 48.796 148.299 48.476 148.843 48.252C149.395 48.028 149.991 47.916 150.631 47.916C151.271 47.916 151.863 48.032 152.407 48.264C152.959 48.488 153.439 48.808 153.847 49.224C154.263 49.632 154.587 50.116 154.819 50.676C155.059 51.236 155.179 51.852 155.179 52.524C155.179 53.188 155.059 53.804 154.819 54.372C154.587 54.932 154.263 55.42 153.847 55.836C153.439 56.252 152.959 56.576 152.407 56.808C151.863 57.032 151.271 57.144 150.631 57.144ZM150.631 56.052C151.127 56.052 151.579 55.964 151.987 55.788C152.395 55.604 152.747 55.352 153.043 55.032C153.347 54.704 153.579 54.328 153.739 53.904C153.907 53.472 153.991 53.012 153.991 52.524C153.991 52.036 153.907 51.58 153.739 51.156C153.579 50.732 153.347 50.36 153.043 50.04C152.747 49.712 152.395 49.46 151.987 49.284C151.579 49.1 151.127 49.008 150.631 49.008C150.143 49.008 149.695 49.1 149.287 49.284C148.879 49.46 148.523 49.712 148.219 50.04C147.923 50.36 147.691 50.732 147.523 51.156C147.355 51.58 147.271 52.036 147.271 52.524C147.271 53.012 147.355 53.472 147.523 53.904C147.691 54.328 147.923 54.704 148.219 55.032C148.523 55.352 148.879 55.604 149.287 55.788C149.695 55.964 150.143 56.052 150.631 56.052ZM153.043 58.08L149.995 53.424H151.291L154.351 58.08H153.043ZM159.054 57.144C158.59 57.144 158.17 57.036 157.794 56.82C157.426 56.604 157.138 56.304 156.93 55.92C156.73 55.528 156.63 55.08 156.63 54.576V50.532H157.746V54.456C157.746 54.776 157.81 55.056 157.938 55.296C158.074 55.536 158.258 55.724 158.49 55.86C158.73 55.996 159.002 56.064 159.306 56.064C159.61 56.064 159.878 55.996 160.11 55.86C160.35 55.724 160.534 55.528 160.662 55.272C160.798 55.016 160.866 54.712 160.866 54.36V50.532H161.994V57H160.902V55.74L161.082 55.848C160.93 56.256 160.67 56.576 160.302 56.808C159.942 57.032 159.526 57.144 159.054 57.144ZM165.619 57.144C165.195 57.144 164.819 57.068 164.491 56.916C164.171 56.756 163.919 56.54 163.735 56.268C163.551 55.988 163.459 55.668 163.459 55.308C163.459 54.964 163.531 54.656 163.675 54.384C163.827 54.104 164.059 53.868 164.371 53.676C164.691 53.484 165.091 53.348 165.571 53.268L167.971 52.872V53.808L165.823 54.168C165.407 54.24 165.103 54.372 164.911 54.564C164.727 54.756 164.635 54.992 164.635 55.272C164.635 55.536 164.739 55.756 164.947 55.932C165.163 56.108 165.431 56.196 165.751 56.196C166.159 56.196 166.511 56.112 166.807 55.944C167.111 55.768 167.347 55.532 167.515 55.236C167.691 54.94 167.779 54.612 167.779 54.252V52.608C167.779 52.256 167.647 51.972 167.383 51.756C167.127 51.532 166.787 51.42 166.363 51.42C165.995 51.42 165.667 51.516 165.379 51.708C165.099 51.892 164.891 52.14 164.755 52.452L163.783 51.948C163.903 51.652 164.095 51.388 164.359 51.156C164.623 50.916 164.931 50.728 165.283 50.592C165.635 50.456 166.003 50.388 166.387 50.388C166.883 50.388 167.319 50.484 167.695 50.676C168.071 50.86 168.363 51.12 168.571 51.456C168.787 51.784 168.895 52.168 168.895 52.608V57H167.803V55.776L168.007 55.848C167.871 56.104 167.687 56.328 167.455 56.52C167.223 56.712 166.951 56.864 166.639 56.976C166.327 57.088 165.987 57.144 165.619 57.144ZM170.626 57V50.532H171.718V51.72L171.598 51.552C171.75 51.184 171.982 50.912 172.294 50.736C172.606 50.552 172.986 50.46 173.434 50.46H173.83V51.516H173.266C172.81 51.516 172.442 51.66 172.162 51.948C171.882 52.228 171.742 52.628 171.742 53.148V57H170.626ZM177.508 57.072C176.876 57.072 176.388 56.892 176.044 56.532C175.708 56.172 175.54 55.664 175.54 55.008V51.6H174.364V50.532H174.604C174.892 50.532 175.12 50.444 175.288 50.268C175.456 50.092 175.54 49.86 175.54 49.572V49.044H176.656V50.532H178.108V51.6H176.656V54.972C176.656 55.188 176.688 55.376 176.752 55.536C176.824 55.696 176.94 55.824 177.1 55.92C177.26 56.008 177.472 56.052 177.736 56.052C177.792 56.052 177.86 56.048 177.94 56.04C178.028 56.032 178.108 56.024 178.18 56.016V57C178.076 57.024 177.96 57.04 177.832 57.048C177.704 57.064 177.596 57.072 177.508 57.072ZM181.451 57.144C181.027 57.144 180.651 57.068 180.323 56.916C180.003 56.756 179.751 56.54 179.567 56.268C179.383 55.988 179.291 55.668 179.291 55.308C179.291 54.964 179.363 54.656 179.507 54.384C179.659 54.104 179.891 53.868 180.203 53.676C180.523 53.484 180.923 53.348 181.403 53.268L183.803 52.872V53.808L181.655 54.168C181.239 54.24 180.935 54.372 180.743 54.564C180.559 54.756 180.467 54.992 180.467 55.272C180.467 55.536 180.571 55.756 180.779 55.932C180.995 56.108 181.263 56.196 181.583 56.196C181.991 56.196 182.343 56.112 182.639 55.944C182.943 55.768 183.179 55.532 183.347 55.236C183.523 54.94 183.611 54.612 183.611 54.252V52.608C183.611 52.256 183.479 51.972 183.215 51.756C182.959 51.532 182.619 51.42 182.195 51.42C181.827 51.42 181.499 51.516 181.211 51.708C180.931 51.892 180.723 52.14 180.587 52.452L179.615 51.948C179.735 51.652 179.927 51.388 180.191 51.156C180.455 50.916 180.763 50.728 181.115 50.592C181.467 50.456 181.835 50.388 182.219 50.388C182.715 50.388 183.151 50.484 183.527 50.676C183.903 50.86 184.195 51.12 184.403 51.456C184.619 51.784 184.727 52.168 184.727 52.608V57H183.635V55.776L183.839 55.848C183.703 56.104 183.519 56.328 183.287 56.52C183.055 56.712 182.783 56.864 182.471 56.976C182.159 57.088 181.819 57.144 181.451 57.144ZM186.458 57V47.916H187.574V57H186.458Z" fill="#121D2F"/>
</g>
<defs>
<filter id="filter0_d_416_667" x="0" y="0" width="229" height="104" filterUnits="userSpaceOnUse" color-interpolation-filters="sRGB">
<feFlood flood-opacity="0" result="BackgroundImageFix"/>
<feColorMatrix in="SourceAlpha" type="matrix" values="0 0 0 0 0 0 0 0 0 0 0 0 0 0 0 0 0 0 127 0" result="hardAlpha"/>
<feOffset dy="8"/>
<feGaussianBlur stdDeviation="8"/>
<feComposite in2="hardAlpha" operator="out"/>
<feColorMatrix type="matrix" values="0 0 0 0 0.146667 0 0 0 0 0.386222 0 0 0 0 0.8 0 0 0 0.15 0"/>
<feBlend mode="normal" in2="BackgroundImageFix" result="effect1_dropShadow_416_667"/>
<feBlend mode="normal" in="SourceGraphic" in2="effect1_dropShadow_416_667" result="shape"/>
</filter>
</defs>
</svg>
