<?xml version="1.0" encoding="utf-8"?>
<!-- Generator: Adobe Illustrator 23.0.2, SVG Export Plug-In . SVG Version: 6.00 Build 0)  -->
<svg version="1.1" xmlns="http://www.w3.org/2000/svg" xmlns:xlink="http://www.w3.org/1999/xlink" x="0px" y="0px"
	 viewBox="0 0 425.2 103.5" style="enable-background:new 0 0 425.2 103.5;" xml:space="preserve">
<style type="text/css">
	.st2{fill:#FFFFFF;}
	.st3{fill:#1D1D1B;}
	.st4{fill:none;stroke:#1D1D1B;stroke-width:0.5;stroke-miterlimit:10;}
</style>
<g id="Ebene_1">
	<g>
		<g>
			<path class="st2" d="M67.34,76.39V26.08h9.87v50.31H67.34z M87.26,76.39l-9.62-26.13l9.45-24.17h10.56l-10.3,24.17l10.64,26.13
				H87.26z"/>
			<path class="st2" d="M99.68,76.39l9.02-50.31h14.13l8.85,50.31h-11.07l-1.53-9.28h-7.32l-1.45,9.28H99.68z M111.94,62.18h7.07
				l-3.49-27.33L111.94,62.18z"/>
			<path class="st2" d="M136.29,76.39V26.08h9.79v43.5h11.41v6.81H136.29z"/>
			<path class="st2" d="M162.08,76.39V26.08h9.87v50.31H162.08z M182,76.39l-9.62-26.13l9.45-24.17h10.56l-10.3,24.17l10.64,26.13
				H182z"/>
			<path class="st2" d="M211.11,77.41c-2.04,0-3.92-0.14-5.62-0.43s-3.18-0.88-4.43-1.79c-1.25-0.91-2.21-2.26-2.89-4.04
				c-0.68-1.79-1.02-4.21-1.02-7.28v-37.8h9.87v40.6c0,1.19,0.18,2.14,0.55,2.85c0.37,0.71,0.86,1.18,1.49,1.4
				c0.62,0.23,1.31,0.34,2.04,0.34c0.68,0,1.33-0.11,1.96-0.34c0.62-0.23,1.12-0.69,1.49-1.4c0.37-0.71,0.55-1.66,0.55-2.85v-40.6
				h9.87v37.8c0,3.01-0.34,5.42-1.02,7.24c-0.68,1.82-1.63,3.18-2.85,4.09c-1.22,0.91-2.7,1.5-4.43,1.79
				C214.95,77.27,213.1,77.41,211.11,77.41z"/>
			<path class="st2" d="M232.31,76.39V26.08h9.79v43.5h11.41v6.81H232.31z"/>
			<path class="st2" d="M255.2,76.39l9.02-50.31h14.13l8.85,50.31h-11.07l-1.53-9.28h-7.32l-1.45,9.28H255.2z M267.46,62.18h7.06
				l-3.49-27.33L267.46,62.18z"/>
			<path class="st2" d="M294.28,76.39V33.06h-7.83v-6.98h25.54v6.98h-7.83v43.33H294.28z"/>
			<path class="st2" d="M316.66,76.39V26.08h18.39c3.35,0,5.87,0.75,7.58,2.26c1.7,1.5,2.55,3.59,2.55,6.26v7.83
				c0,2.67-0.71,4.91-2.13,6.72c-1.42,1.82-3.63,2.87-6.64,3.15c1.93,0.28,3.31,0.92,4.13,1.92c0.82,0.99,1.55,2.6,2.17,4.81
				l4.77,17.37H336.5l-3.66-16.68c-0.34-1.36-0.72-2.51-1.15-3.45c-0.43-0.94-1.04-1.4-1.83-1.4h-2.89v21.54H316.66z M326.96,47.96
				h4.09c1.59,0,2.72-0.44,3.41-1.32c0.68-0.88,1.02-2.28,1.02-4.21v-6.04c0-1.82-0.31-3.09-0.94-3.83
				c-0.63-0.74-1.59-1.11-2.89-1.11h-4.68V47.96z"/>
			<path class="st2" d="M352.76,76.39V26.08h9.87v50.31H352.76z"/>
			<path class="st2" d="M367.4,76.39l7.41-25.88l-6.98-24.43h9.88l4.43,16.77l4.34-16.77h10.39l-7.15,24.43l6.98,25.88h-9.87
				l-4.6-16.77l-4.34,16.77H367.4z"/>
		</g>
		<g>
			<rect x="28.65" y="26.38" class="st2" width="25.66" height="25.36"/>
			<rect x="28.65" y="51.75" class="st3" width="25.66" height="25.36"/>
			<path class="st2" d="M54.31,77.41H28.65c-0.17,0-0.3-0.13-0.3-0.3V26.38c0-0.17,0.13-0.3,0.3-0.3h25.66c0.17,0,0.3,0.13,0.3,0.3
				v50.73C54.61,77.28,54.48,77.41,54.31,77.41z M28.95,76.81h25.06V26.68H28.95V76.81z"/>
			<polygon class="st3" points="48.3,37.01 43.54,37.01 43.54,32.25 39.42,32.25 39.42,37.01 34.66,37.01 34.66,41.13 39.42,41.13 
				39.42,45.89 43.54,45.89 43.54,41.13 48.3,41.13 			"/>
			<rect x="35.51" y="62.37" class="st2" width="11.94" height="4.12"/>
		</g>
	</g>
</g>
</svg>
